<svg width="21" height="21" viewBox="0 0 21 21" fill="none" xmlns="http://www.w3.org/2000/svg">
<g clip-path="url(#clip0_715_3117)">
<path d="M0.383667 16.5864L1.26813 18.717C1.4864 19.2346 1.90074 19.6447 2.42056 19.8577C2.94037 20.0706 3.52336 20.0691 4.04206 19.8535L7.31066 18.4743C7.44367 18.4167 7.55572 18.3195 7.63161 18.196C7.70751 18.0725 7.74356 17.9287 7.73489 17.784L7.96031 17.6885C8.23529 17.5703 8.53768 17.5307 8.83382 17.5742C10.5605 17.8325 13.5207 17.2345 15.047 16.3203C16.5354 15.4351 17.9556 14.4399 19.2955 13.3429C20.6246 12.2471 19.175 10.295 17.7692 11.192C17.3497 11.4597 16.3776 12.1594 15.8266 12.5476C15.6559 12.0968 15.1769 11.7289 14.6948 11.8479C14.5429 11.8839 14.3973 11.9308 14.2564 11.9762C13.6835 12.1594 13.0918 12.3488 11.7893 11.851C9.32693 10.9086 6.87861 12.0827 6.69545 12.1735L5.64349 12.6181C5.54728 12.5074 5.4186 12.43 5.2758 12.3969C5.133 12.3637 4.98337 12.3765 4.84825 12.4333C4.31444 12.6541 2.78816 13.2943 1.51703 13.8266C1.00193 14.0437 0.593645 14.4557 0.381302 14.9728C0.168958 15.4899 0.169808 16.07 0.383667 16.5864ZM12.243 14.3948C12.247 14.3642 12.257 14.3347 12.2724 14.308C12.2878 14.2813 12.3083 14.2578 12.3328 14.239C12.3572 14.2202 12.3852 14.2064 12.415 14.1984C12.4448 14.1904 12.4759 14.1884 12.5065 14.1924C13.0039 14.2577 13.9549 14.2589 14.4155 14.0542C14.694 13.9258 15.1782 13.6131 15.3704 13.2763C15.3953 13.2317 15.4342 13.1964 15.481 13.1759C15.5278 13.1554 15.5801 13.1507 15.6298 13.1625C15.6655 13.1702 15.6989 13.1862 15.7271 13.2094C15.7554 13.2325 15.7778 13.262 15.7923 13.2955C15.8069 13.3289 15.8134 13.3654 15.8111 13.4018C15.8088 13.4383 15.7978 13.4737 15.7791 13.505C15.4437 14.0954 14.6173 14.4787 14.6068 14.4834C14.0565 14.7339 13.0072 14.7281 12.4465 14.6581C12.4158 14.6543 12.3862 14.6444 12.3594 14.629C12.3325 14.6137 12.309 14.5932 12.2901 14.5687C12.2711 14.5443 12.2573 14.5163 12.2492 14.4865C12.2411 14.4566 12.239 14.4255 12.243 14.3948ZM5.02828 12.867C5.05681 12.8549 5.08747 12.8487 5.11845 12.8486C5.14943 12.8485 5.18011 12.8547 5.20869 12.8666C5.23727 12.8786 5.26317 12.8961 5.28488 12.9182C5.30659 12.9403 5.32366 12.9665 5.3351 12.9953L7.25274 17.7386C7.27595 17.7953 7.27582 17.8588 7.25236 17.9154C7.2289 17.972 7.18402 18.017 7.12751 18.0407L6.45281 18.3256L4.30975 13.166C4.61657 13.0392 4.86704 12.9343 5.02828 12.867Z" fill="white"/>
<path d="M16.9849 4.2286V3.44589C16.9846 3.25915 16.9103 3.08014 16.7782 2.9481C16.6462 2.81605 16.4672 2.74174 16.2804 2.74145H14.6868L13.8806 1.15724C13.7049 0.808878 13.4356 0.516301 13.103 0.312265C12.7704 0.108229 12.3876 0.000786241 11.9974 0.00196268H8.04005C7.64986 0.000786241 7.26704 0.108229 6.93444 0.312265C6.60185 0.516301 6.3326 0.808878 6.15685 1.15724L5.35065 2.74145H3.75705C3.57031 2.74174 3.3913 2.81605 3.25926 2.9481C3.12721 3.08014 3.0529 3.25915 3.05261 3.44589V4.2286C3.0529 4.41534 3.12721 4.59435 3.25926 4.7264C3.3913 4.85844 3.57031 4.93275 3.75705 4.93304H3.87446C3.7969 5.09141 3.75673 5.26547 3.75705 5.44181V8.18129C3.75714 8.39489 3.8155 8.6044 3.92584 8.78729C4.03618 8.97017 4.19431 9.11949 4.38322 9.21917V10.0598C4.38351 10.2465 4.45782 10.4256 4.58987 10.5576C4.72191 10.6896 4.90092 10.764 5.08766 10.7642H6.18346C6.3702 10.764 6.54921 10.6896 6.68125 10.5576C6.8133 10.4256 6.88761 10.2465 6.8879 10.0598V9.35536H13.1496V10.0598C13.1499 10.2465 13.2242 10.4256 13.3562 10.5576C13.4883 10.6896 13.6673 10.764 13.854 10.7642H14.9498C15.1366 10.764 15.3156 10.6896 15.4476 10.5576C15.5797 10.4256 15.654 10.2465 15.6543 10.0598V9.21917C15.8432 9.11949 16.0013 8.97017 16.1116 8.78729C16.222 8.6044 16.2803 8.39489 16.2804 8.18129V5.44181C16.2808 5.26547 16.2406 5.09141 16.163 4.93304H16.2804C16.4672 4.93275 16.6462 4.85844 16.7782 4.7264C16.9103 4.59435 16.9846 4.41534 16.9849 4.2286ZM6.73135 6.96809C6.73135 7.09265 6.68188 7.2121 6.5938 7.30017C6.50573 7.38824 6.38628 7.43772 6.26173 7.43772H5.47902C5.35446 7.43772 5.23501 7.38824 5.14694 7.30017C5.05887 7.2121 5.00939 7.09265 5.00939 6.96809V6.65501C5.00939 6.53046 5.05887 6.411 5.14694 6.32293C5.23501 6.23486 5.35446 6.18538 5.47902 6.18538H6.26173C6.38628 6.18538 6.50573 6.23486 6.5938 6.32293C6.68188 6.411 6.73135 6.53046 6.73135 6.65501V6.96809ZM11.0363 7.04636H9.00122C8.93894 7.04636 8.87922 7.02162 8.83518 6.97759C8.79114 6.93355 8.7664 6.87383 8.7664 6.81155C8.7664 6.74927 8.79114 6.68955 8.83518 6.64551C8.87922 6.60148 8.93894 6.57674 9.00122 6.57674H11.0363C11.0985 6.57674 11.1583 6.60148 11.2023 6.64551C11.2463 6.68955 11.2711 6.74927 11.2711 6.81155C11.2711 6.87383 11.2463 6.93355 11.2023 6.97759C11.1583 7.02162 11.0985 7.04636 11.0363 7.04636ZM5.10175 4.26774L6.57481 1.37014C6.71173 1.09925 6.92126 0.87176 7.18001 0.713084C7.43876 0.554409 7.73652 0.470797 8.04005 0.471589H11.9974C12.301 0.470797 12.5987 0.554409 12.8575 0.713084C13.1162 0.87176 13.3258 1.09925 13.4627 1.37014L14.9357 4.26774H5.10175ZM15.0281 6.96809C15.0281 7.09265 14.9786 7.2121 14.8905 7.30017C14.8025 7.38824 14.683 7.43772 14.5585 7.43772H13.7758C13.6512 7.43772 13.5318 7.38824 13.4437 7.30017C13.3556 7.2121 13.3061 7.09265 13.3061 6.96809V6.65501C13.3061 6.53046 13.3556 6.411 13.4437 6.32293C13.5318 6.23486 13.6512 6.18538 13.7758 6.18538H14.5585C14.683 6.18538 14.8025 6.23486 14.8905 6.32293C14.9786 6.411 15.0281 6.53046 15.0281 6.65501V6.96809Z" fill="white"/>
</g>
<defs>
<clipPath id="clip0_715_3117">
<rect width="20.0374" height="20.0374" fill="white"/>
</clipPath>
</defs>
</svg>
