<svg width="117" height="100" viewBox="0 0 117 100" fill="none" xmlns="http://www.w3.org/2000/svg">
<path d="M56.5461 78.9822C56.3146 77.8417 55.8265 76.7689 55.1187 75.8451C54.4108 74.9214 53.502 74.171 52.4609 73.6508L43.5014 69.8258V69.5918C41.3858 70.5809 39.0788 71.0935 36.7435 71.0935C34.4081 71.0935 32.1011 70.5809 29.9855 69.5918V69.8258L21.026 73.6508C19.8486 74.239 18.8424 75.1205 18.1045 76.2104C17.3665 77.3003 16.9216 78.5617 16.8125 79.8734V89.6152H56.6744V79.8734C56.6505 79.5739 56.6077 79.2763 56.5461 78.9822Z" fill="#50A6EA"/>
<path d="M26.2994 73.647L33.2159 70.6939C32.1026 70.442 31.0196 70.0712 29.9855 69.5879V69.8219L21.026 73.6469C19.8485 74.2351 18.8424 75.1167 18.1044 76.2066C17.3665 77.2965 16.9215 78.558 16.8125 79.8697V89.6115H22.0859V79.8697C22.195 78.558 22.64 77.2965 23.3779 76.2067C24.1159 75.1168 25.122 74.2353 26.2994 73.647Z" fill="#72BCEF"/>
<path d="M101.187 17.1348V75.4643C101.187 75.926 101.096 76.3832 100.92 76.8098C100.743 77.2364 100.484 77.624 100.158 77.9505C99.8312 78.277 99.4436 78.5359 99.017 78.7126C98.5904 78.8892 98.1332 78.98 97.6715 78.9799H56.5457C56.3142 77.8394 55.8261 76.7666 55.1183 75.8428C54.4105 74.9191 53.5016 74.1686 52.4605 73.6484L46.702 71.191V60.8586L46.7002 60.8568C49.2039 58.2115 50.5969 54.7063 50.592 51.0641V49.257C51.0855 49.1699 51.5559 48.9823 51.9741 48.706C52.3922 48.4296 52.7492 48.0704 53.0229 47.6506C53.2966 47.2307 53.4812 46.7591 53.5653 46.2651C53.6493 45.771 53.6311 45.2649 53.5117 44.7781C53.3751 44.2129 53.0631 43.7055 52.6204 43.3284C52.1777 42.9514 51.627 42.7242 51.0473 42.6793H50.7027V37.1158C50.7072 33.3837 49.2745 29.7931 46.702 27.0893V17.1348C46.702 16.2024 47.0723 15.3082 47.7317 14.6488C48.391 13.9895 49.2852 13.6191 50.2176 13.6191H58.9029V16.4264H90.7439V13.6191H97.6715C98.6039 13.6191 99.4981 13.9895 100.157 14.6488C100.817 15.3082 101.187 16.2024 101.187 17.1348Z" fill="#E5F5FD"/>
<path d="M64.6025 45.7637C70.4274 45.7637 75.1494 41.0417 75.1494 35.2168C75.1494 29.3919 70.4274 24.6699 64.6025 24.6699C58.7777 24.6699 54.0557 29.3919 54.0557 35.2168C54.0557 41.0417 58.7777 45.7637 64.6025 45.7637Z" fill="#49C160"/>
<path d="M57.571 35.2167C57.5719 32.7246 58.4549 30.3133 60.0636 28.4101C61.6724 26.5068 63.9029 25.2345 66.3601 24.8185C64.8473 24.5619 63.2968 24.6383 61.8167 25.0426C60.3365 25.4469 58.9624 26.1693 57.7903 27.1593C56.6181 28.1494 55.676 29.3833 55.0298 30.7749C54.3836 32.1666 54.0488 33.6824 54.0488 35.2168C54.0488 36.7511 54.3836 38.267 55.0298 39.6587C55.676 41.0503 56.6181 42.2842 57.7903 43.2742C58.9624 44.2643 60.3365 44.9867 61.8167 45.391C63.2968 45.7952 64.8473 45.8717 66.3601 45.615C63.9028 45.1994 61.672 43.9271 60.0632 42.0238C58.4544 40.1204 57.5715 37.7089 57.571 35.2167Z" fill="#5AE070"/>
<path d="M50.7027 42.6814V42.8432C50.7027 42.8432 38.2557 45.0369 29.9096 37.5996C28.1956 37.7438 26.4747 37.7873 24.7557 37.7297L24.3672 44.1053C24.3634 44.1537 24.3477 44.2005 24.3215 44.2414C24.2952 44.2823 24.2593 44.3161 24.2168 44.3398C24.1744 44.3634 24.1267 44.3762 24.0781 44.377C24.0295 44.3778 23.9815 44.3666 23.9383 44.3443L22.2156 43.4602C22.0337 43.3664 21.879 43.2274 21.7663 43.0565C21.6537 42.8857 21.5868 42.6887 21.5723 42.4846V37.118C21.5723 33.255 23.1068 29.5503 25.8383 26.8188C28.5698 24.0873 32.2746 22.5527 36.1375 22.5527C40.0004 22.5527 43.7052 24.0873 46.4367 26.8188C49.1682 29.5503 50.7027 33.255 50.7027 37.118V42.6814Z" fill="#4A5160"/>
<path d="M29.3541 26.8189C31.6575 24.5117 34.6704 23.0469 37.9076 22.6603C37.3203 22.5889 36.7292 22.553 36.1375 22.5527C32.2746 22.5529 28.57 24.0875 25.8385 26.8189C23.107 29.5504 21.5724 33.2551 21.5723 37.118V42.4846C21.5868 42.6887 21.6537 42.8857 21.7663 43.0565C21.879 43.2274 22.0337 43.3664 22.2156 43.4602L23.9383 44.3443C23.9815 44.3665 24.0295 44.3777 24.0781 44.3769C24.1267 44.3761 24.1743 44.3633 24.2167 44.3397C24.2592 44.316 24.2951 44.2822 24.3214 44.2413C24.3476 44.2004 24.3634 44.1537 24.3672 44.1053C24.3672 44.1053 23.6101 32.5622 29.3541 26.8189Z" fill="#58606D"/>
<path d="M43.5012 63.4004V69.5896C41.3856 70.5787 39.0786 71.0913 36.7433 71.0913C34.4079 71.0913 32.101 70.5787 29.9854 69.5896V63.8609C32.101 64.9063 34.4427 65.4113 36.8012 65.331C39.1597 65.2506 41.4615 64.5873 43.5012 63.4004Z" fill="#EFC597"/>
<path d="M33.501 69.5899V65.0605C32.2816 64.8166 31.0996 64.4134 29.9854 63.8613V69.5899C32.641 70.8314 35.5874 71.3173 38.5011 70.9942C36.7688 70.8025 35.0797 70.3281 33.501 69.5899Z" fill="#D8AD82"/>
<path d="M43.5012 63.4025C41.3319 64.6665 38.8676 65.336 36.357 65.3433C33.8464 65.3506 31.3782 64.6956 29.2016 63.4444C27.025 62.1931 25.2169 60.3898 23.9598 58.2165C22.7027 56.0433 22.0412 53.5769 22.0418 51.0662V49.2592C21.5486 49.1712 21.0786 48.9832 20.6609 48.7067C20.2431 48.4301 19.8864 48.071 19.6127 47.6514C19.3389 47.2318 19.1541 46.7606 19.0694 46.2668C18.9847 45.773 19.0021 45.2671 19.1203 44.7803C19.2573 44.2149 19.5697 43.7075 20.0127 43.3305C20.4557 42.9535 21.0066 42.7263 21.5865 42.6814L21.6024 42.6779C21.6422 42.8448 21.7176 43.0011 21.8235 43.1361C21.9294 43.2712 22.0632 43.3817 22.2158 43.4602L23.9385 44.3443C23.9817 44.3666 24.0297 44.3778 24.0783 44.377C24.1269 44.3762 24.1746 44.3634 24.217 44.3398C24.2595 44.3161 24.2954 44.2823 24.3217 44.2414C24.3479 44.2005 24.3636 44.1537 24.3674 44.1053L24.7559 37.7297C26.4749 37.7873 28.1958 37.7438 29.9098 37.5996C38.2559 45.0369 50.7029 42.8432 50.7029 42.8432V42.6814H51.0475C51.6272 42.7263 52.1779 42.9536 52.6206 43.3306C53.0633 43.7076 53.3753 44.2151 53.5119 44.7803C53.6313 45.267 53.6496 45.7731 53.5655 46.2672C53.4814 46.7613 53.2968 47.2329 53.0231 47.6527C52.7494 48.0726 52.3924 48.4318 51.9743 48.7081C51.5562 48.9844 51.0858 49.172 50.5922 49.2592V51.0662C50.5971 54.7084 49.2041 58.2137 46.7004 60.859C46.6072 60.9609 46.5088 61.0611 46.4104 61.1596C45.5412 62.0293 44.5634 62.7832 43.5012 63.4025Z" fill="#FFD8B7"/>
<path d="M33.5015 63.8624C31.1161 62.682 29.1082 60.8582 27.7046 58.5969C26.3009 56.3356 25.5574 53.727 25.558 51.0655V49.2585C25.0648 49.1705 24.5948 48.9824 24.177 48.7059C23.7592 48.4294 23.4025 48.0703 23.1288 47.6507C22.8551 47.2311 22.6702 46.7598 22.5855 46.2661C22.5009 45.7723 22.5182 45.2664 22.6365 44.7796C22.7145 44.4582 22.8495 44.1534 23.035 43.8795L22.2164 43.46C22.0638 43.3815 21.9299 43.271 21.8241 43.136C21.7182 43.0009 21.6427 42.8446 21.6029 42.6777L21.5871 42.6812C21.0071 42.7261 20.4562 42.9533 20.0132 43.3303C19.5702 43.7073 19.2579 44.2148 19.1208 44.7801C19.0016 45.267 18.9835 45.7731 19.0677 46.2673C19.152 46.7614 19.3367 47.233 19.6106 47.6529C19.8845 48.0727 20.2416 48.4319 20.6599 48.7082C21.0781 48.9844 21.5487 49.1719 22.0423 49.259V51.066C22.0414 52.9409 22.41 54.7976 23.1271 56.53C23.8442 58.2624 24.8956 59.8364 26.2214 61.1622C27.5471 62.4879 29.1212 63.5394 30.8536 64.2565C32.5859 64.9735 34.4426 65.3421 36.3175 65.3412C36.9042 65.3407 37.4903 65.3044 38.0725 65.2326C36.4824 65.0371 34.9369 64.5738 33.5015 63.8624Z" fill="#E8BC9E"/>
<path d="M58.9033 10.3848H90.7443V16.4281H58.9033V10.3848Z" fill="#475673"/>
<path d="M97.6719 12.5674H91.7981V10.3848C91.7981 10.105 91.687 9.83678 91.4892 9.63899C91.2914 9.4412 91.0232 9.33008 90.7435 9.33008H58.9038C58.6241 9.33008 58.3559 9.4412 58.1581 9.63899C57.9603 9.83678 57.8492 10.105 57.8492 10.3848V12.5674H50.2176C49.0059 12.5687 47.8441 13.0506 46.9873 13.9074C46.1305 14.7643 45.6486 15.926 45.6473 17.1378V24.7371C43.3361 22.9592 40.5731 21.8641 37.6714 21.576C34.7698 21.288 31.8454 21.8183 29.2297 23.1071C26.614 24.3958 24.4116 26.3914 22.8719 28.8678C21.3323 31.3441 20.517 34.2022 20.5185 37.1181V41.8454C19.9223 42.0541 19.3881 42.4093 18.965 42.8783C18.5418 43.3472 18.2432 43.915 18.0966 44.5294C17.8238 45.6448 17.9668 46.8215 18.4989 47.8391C19.0309 48.8567 19.9156 49.6456 20.9873 50.0581V51.0667C20.9892 53.8112 21.7272 56.5049 23.1245 58.867C24.5218 61.2291 26.5272 63.1731 28.9316 64.4964V69.1298L20.6113 72.6806C20.5918 72.689 20.5726 72.6982 20.5538 72.7073C19.2179 73.3808 18.0763 74.3846 17.2375 75.6235C16.3987 76.8624 15.8906 78.2951 15.7615 79.7857C15.759 79.8147 15.7578 79.844 15.7578 79.8736V89.6155C15.7578 89.8952 15.8689 90.1635 16.0667 90.3613C16.2645 90.5591 16.5328 90.6702 16.8125 90.6702H56.6742C56.954 90.6702 57.2222 90.5591 57.42 90.3613C57.6178 90.1635 57.7289 89.8952 57.7289 89.6155V80.037H97.6719C98.8836 80.0357 100.045 79.5538 100.902 78.697C101.759 77.8402 102.241 76.6784 102.242 75.4667V17.1374C102.241 15.9257 101.759 14.7641 100.902 13.9074C100.045 13.0506 98.8835 12.5687 97.6719 12.5674ZM59.9585 11.4395H89.6888V15.3743H59.9585V11.4395ZM22.6279 37.1181C22.6279 35.344 22.9773 33.5872 23.6562 31.9481C24.3352 30.309 25.3303 28.8197 26.5848 27.5652C27.8393 26.3107 29.3286 25.3156 30.9677 24.6366C32.6068 23.9577 34.3636 23.6083 36.1377 23.6083C37.9119 23.6083 39.6686 23.9577 41.3077 24.6366C42.9468 25.3156 44.4361 26.3107 45.6906 27.5652C46.9451 28.8197 47.9403 30.309 48.6192 31.9481C49.2981 33.5872 49.6476 35.344 49.6476 37.1181V41.9197C47.034 42.2022 39.0559 42.6285 32.6495 38.3806C37.0514 37.7938 42.4173 36.4424 46.397 33.3903C46.5101 33.3072 46.6055 33.2024 46.6775 33.082C46.7496 32.9616 46.7969 32.828 46.8167 32.6891C46.8365 32.5502 46.8284 32.4087 46.7928 32.273C46.7572 32.1372 46.6949 32.01 46.6096 31.8986C46.5242 31.7873 46.4174 31.694 46.2956 31.6245C46.1737 31.5549 46.0392 31.5103 45.8999 31.4934C45.7606 31.4764 45.6193 31.4875 45.4843 31.5258C45.3494 31.5642 45.2234 31.6291 45.1138 31.7167C37.8739 37.2695 24.9401 36.6838 24.8111 36.6769C24.5335 36.6628 24.2615 36.7588 24.0542 36.944C23.8469 37.1292 23.7209 37.3886 23.7037 37.666L23.3872 42.8749L22.6991 42.5216C22.6813 42.5126 22.6658 42.4997 22.6536 42.4839C22.6414 42.4682 22.6329 42.4499 22.6288 42.4304L22.6279 37.1181ZM23.0967 51.0667V49.2595C23.0967 49.0113 23.0092 48.771 22.8496 48.581C22.69 48.3909 22.4684 48.2633 22.2239 48.2204C21.8727 48.158 21.538 48.0242 21.2405 47.8274C20.943 47.6305 20.689 47.3748 20.4942 47.0759C20.2994 46.7771 20.168 46.4415 20.108 46.0898C20.048 45.7382 20.0607 45.378 20.1453 45.0314C20.2019 44.7811 20.3164 44.5476 20.4795 44.3495C20.6426 44.1513 20.8499 43.9942 21.0847 43.8906C21.268 44.0989 21.4886 44.271 21.7351 44.3983L23.4577 45.2826C23.6553 45.3842 23.875 45.4353 24.0971 45.4316C24.3192 45.4279 24.537 45.3693 24.7311 45.2612C24.9252 45.1531 25.0895 44.9987 25.2096 44.8118C25.3297 44.6249 25.4018 44.4112 25.4195 44.1898C25.4195 44.1831 25.4205 44.1766 25.4209 44.1699L25.7473 38.8112C26.6086 38.8193 27.9407 38.8053 29.56 38.6924C38.1741 46.0204 50.3649 43.9743 50.8863 43.8827C50.9955 43.8626 51.1009 43.8253 51.1985 43.7721C51.5115 43.8366 51.7995 43.9895 52.0283 44.2127C52.2571 44.4359 52.4171 44.7201 52.4892 45.0314C52.574 45.378 52.5868 45.7382 52.5268 46.0899C52.4669 46.4415 52.3354 46.7772 52.1407 47.0761C51.9459 47.3749 51.6919 47.6307 51.3943 47.8275C51.0968 48.0243 50.7621 48.1581 50.4108 48.2204C50.1663 48.2633 49.9448 48.3909 49.7851 48.581C49.6255 48.771 49.538 49.0113 49.538 49.2595V51.0667C49.5253 54.5646 48.1268 57.9148 45.6489 60.3837C43.171 62.8526 39.8157 64.2388 36.3178 64.2388C32.8199 64.2388 29.4646 62.8526 26.9867 60.3837C24.5088 57.9148 23.1103 54.5646 23.0976 51.0667H23.0967ZM45.6478 63.2202V69.5956L44.5552 69.1295V63.9893C44.931 63.7488 45.2952 63.4924 45.6478 63.2202ZM42.4458 65.1171V68.9037C38.7922 70.4041 34.6945 70.4041 31.0409 68.9037V65.4605C34.7451 66.8182 38.8301 66.6951 42.4458 65.1171ZM55.6195 88.5612H17.8672V79.9179C17.9715 78.8007 18.3565 77.7281 18.9866 76.7996C19.6166 75.8712 20.4711 75.1171 21.4707 74.6075L30.2534 70.8591C34.4127 72.5642 39.0758 72.5642 43.2351 70.8591L52.018 74.6077C53.0172 75.1175 53.8714 75.8716 54.5011 76.8C55.1307 77.7284 55.5155 78.8009 55.6195 79.9179V88.5612ZM100.133 75.4671C100.132 76.1196 99.8727 76.7452 99.4114 77.2066C98.95 77.6679 98.3244 77.9274 97.6719 77.928H57.3568C57.0065 76.806 56.4344 75.7657 55.6744 74.8689C54.9145 73.9721 53.9822 73.237 52.9329 72.7073C52.9141 72.6976 52.8949 72.6897 52.8754 72.6806L47.7572 70.496V61.259C50.2646 58.4565 51.6496 54.8272 51.6465 51.0667V50.0581C52.7182 49.6457 53.6029 48.8569 54.1349 47.8393C54.667 46.8217 54.8101 45.6452 54.5373 44.5297C54.3759 43.8531 54.031 43.2342 53.5404 42.741C53.0498 42.2479 52.4327 41.8997 51.7569 41.7348V37.1181C51.7601 33.2673 50.3349 29.5521 47.7572 26.6913V17.1374C47.7578 16.4849 48.0173 15.8593 48.4787 15.3979C48.9401 14.9365 49.5657 14.6771 50.2181 14.6765H57.8497V16.4287C57.8497 16.7084 57.9608 16.9766 58.1586 17.1744C58.3564 17.3722 58.6247 17.4833 58.9044 17.4833H90.7435C91.0232 17.4833 91.2914 17.3722 91.4892 17.1744C91.687 16.9766 91.7981 16.7084 91.7981 16.4287V14.6768H97.6719C98.3244 14.6774 98.95 14.9369 99.4114 15.3983C99.8727 15.8597 100.132 16.4853 100.133 17.1378V75.4671Z" fill="#284268"/>
<path d="M92.5009 43.9668H84.79C84.5103 43.9668 84.2421 44.0779 84.0443 44.2757C83.8465 44.4735 83.7354 44.7418 83.7354 45.0215C83.7354 45.3012 83.8465 45.5695 84.0443 45.7673C84.2421 45.9651 84.5103 46.0762 84.79 46.0762H92.5009C92.7806 46.0762 93.0488 45.9651 93.2466 45.7673C93.4444 45.5695 93.5556 45.3012 93.5556 45.0215C93.5556 44.7418 93.4444 44.4735 93.2466 44.2757C93.0488 44.0779 92.7806 43.9668 92.5009 43.9668Z" fill="#284268"/>
<path d="M77.6602 46.0762H80.2468C80.5265 46.0762 80.7948 45.9651 80.9926 45.7673C81.1903 45.5695 81.3015 45.3012 81.3015 45.0215C81.3015 44.7418 81.1903 44.4735 80.9926 44.2757C80.7948 44.0779 80.5265 43.9668 80.2468 43.9668H77.6602C77.3804 43.9668 77.1122 44.0779 76.9144 44.2757C76.7166 44.4735 76.6055 44.7418 76.6055 45.0215C76.6055 45.3012 76.7166 45.5695 76.9144 45.7673C77.1122 45.9651 77.3804 46.0762 77.6602 46.0762Z" fill="#284268"/>
<path d="M92.5011 55.377H89.8828C89.6031 55.377 89.3348 55.4881 89.137 55.6859C88.9392 55.8837 88.8281 56.1519 88.8281 56.4316C88.8281 56.7114 88.9392 56.9796 89.137 57.1774C89.3348 57.3752 89.6031 57.4863 89.8828 57.4863H92.5011C92.7808 57.4863 93.0491 57.3752 93.2469 57.1774C93.4446 56.9796 93.5558 56.7114 93.5558 56.4316C93.5558 56.1519 93.4446 55.8837 93.2469 55.6859C93.0491 55.4881 92.7808 55.377 92.5011 55.377Z" fill="#284268"/>
<path d="M86.235 57.4863C86.5147 57.4863 86.783 57.3752 86.9808 57.1774C87.1785 56.9796 87.2897 56.7114 87.2897 56.4316C87.2897 56.1519 87.1785 55.8837 86.9808 55.6859C86.783 55.4881 86.5147 55.377 86.235 55.377H72.2676C71.9879 55.377 71.7196 55.4881 71.5218 55.6859C71.324 55.8837 71.2129 56.1519 71.2129 56.4316C71.2129 56.7114 71.324 56.9796 71.5218 57.1774C71.7196 57.3752 71.9879 57.4863 72.2676 57.4863H86.235Z" fill="#284268"/>
<path d="M68.5693 55.377H67.627C67.3472 55.377 67.079 55.4881 66.8812 55.6859C66.6834 55.8837 66.5723 56.1519 66.5723 56.4316C66.5723 56.7114 66.6834 56.9796 66.8812 57.1774C67.079 57.3752 67.3472 57.4863 67.627 57.4863H68.5693C68.849 57.4863 69.1173 57.3752 69.3151 57.1774C69.5129 56.9796 69.624 56.7114 69.624 56.4316C69.624 56.1519 69.5129 55.8837 69.3151 55.6859C69.1173 55.4881 68.849 55.377 68.5693 55.377Z" fill="#284268"/>
<path d="M57.1035 55.377C56.8238 55.377 56.5555 55.4881 56.3577 55.6859C56.1599 55.8837 56.0488 56.1519 56.0488 56.4316C56.0488 56.7114 56.1599 56.9796 56.3577 57.1774C56.5555 57.3752 56.8238 57.4863 57.1035 57.4863H63.0832C63.363 57.4863 63.6312 57.3752 63.829 57.1774C64.0268 56.9796 64.1379 56.7114 64.1379 56.4316C64.1379 56.1519 64.0268 55.8837 63.829 55.6859C63.6312 55.4881 63.363 55.377 63.0832 55.377H57.1035Z" fill="#284268"/>
<path d="M92.5013 65.9199H86.4658C86.1861 65.9199 85.9178 66.031 85.72 66.2288C85.5223 66.4266 85.4111 66.6949 85.4111 66.9746C85.4111 67.2543 85.5223 67.5226 85.72 67.7204C85.9178 67.9182 86.1861 68.0293 86.4658 68.0293H92.5013C92.781 68.0293 93.0493 67.9182 93.247 67.7204C93.4448 67.5226 93.556 67.2543 93.556 66.9746C93.556 66.6949 93.4448 66.4266 93.247 66.2288C93.0493 66.031 92.781 65.9199 92.5013 65.9199Z" fill="#284268"/>
<path d="M82.6802 65.9199H81.9219C81.6422 65.9199 81.3739 66.031 81.1761 66.2288C80.9783 66.4266 80.8672 66.6949 80.8672 66.9746C80.8672 67.2543 80.9783 67.5226 81.1761 67.7204C81.3739 67.9182 81.6422 68.0293 81.9219 68.0293H82.6797C82.9594 68.0293 83.2277 67.9182 83.4254 67.7204C83.6232 67.5226 83.7344 67.2543 83.7344 66.9746C83.7344 66.6949 83.6232 66.4266 83.4254 66.2288C83.2277 66.031 82.9594 65.9199 82.6797 65.9199H82.6802Z" fill="#284268"/>
<path d="M78.9536 65.9199H73.2207C72.941 65.9199 72.6727 66.031 72.4749 66.2288C72.2771 66.4266 72.166 66.6949 72.166 66.9746C72.166 67.2543 72.2771 67.5226 72.4749 67.7204C72.6727 67.9182 72.941 68.0293 73.2207 68.0293H78.9538C79.2335 68.0293 79.5018 67.9182 79.6996 67.7204C79.8974 67.5226 80.0085 67.2543 80.0085 66.9746C80.0085 66.6949 79.8974 66.4266 79.6996 66.2288C79.5018 66.031 79.2335 65.9199 78.9538 65.9199H78.9536Z" fill="#284268"/>
<path d="M68.5688 65.9199H57.1035C56.8238 65.9199 56.5555 66.031 56.3577 66.2288C56.1599 66.4266 56.0488 66.6949 56.0488 66.9746C56.0488 67.2543 56.1599 67.5226 56.3577 67.7204C56.5555 67.9182 56.8238 68.0293 57.1035 68.0293H68.5688C68.8486 68.0293 69.1168 67.9182 69.3146 67.7204C69.5124 67.5226 69.6235 67.2543 69.6235 66.9746C69.6235 66.6949 69.5124 66.4266 69.3146 66.2288C69.1168 66.031 68.8486 65.9199 68.5688 65.9199Z" fill="#284268"/>
<path d="M92.5009 34.9863H91.8203C91.5406 34.9863 91.2723 35.0974 91.0745 35.2952C90.8767 35.493 90.7656 35.7613 90.7656 36.041C90.7656 36.3207 90.8767 36.589 91.0745 36.7868C91.2723 36.9846 91.5406 37.0957 91.8203 37.0957H92.5009C92.7807 37.0957 93.0489 36.9846 93.2467 36.7868C93.4445 36.589 93.5556 36.3207 93.5556 36.041C93.5556 35.7613 93.4445 35.493 93.2467 35.2952C93.0489 35.0974 92.7807 34.9863 92.5009 34.9863Z" fill="#284268"/>
<path d="M79.8018 37.0957H87.2774C87.5571 37.0957 87.8254 36.9846 88.0232 36.7868C88.221 36.589 88.3321 36.3207 88.3321 36.041C88.3321 35.7613 88.221 35.493 88.0232 35.2952C87.8254 35.0974 87.5571 34.9863 87.2774 34.9863H79.8018C79.522 34.9863 79.2538 35.0974 79.056 35.2952C78.8582 35.493 78.7471 35.7613 78.7471 36.041C78.7471 36.3207 78.8582 36.589 79.056 36.7868C79.2538 36.9846 79.522 37.0957 79.8018 37.0957Z" fill="#284268"/>
<path d="M92.501 26.1973H84.9658C84.6861 26.1973 84.4178 26.3084 84.22 26.5062C84.0223 26.704 83.9111 26.9722 83.9111 27.252C83.9111 27.5317 84.0223 27.7999 84.22 27.9977C84.4178 28.1955 84.6861 28.3066 84.9658 28.3066H92.501C92.7808 28.3066 93.049 28.1955 93.2468 27.9977C93.4446 27.7999 93.5557 27.5317 93.5557 27.252C93.5557 26.9722 93.4446 26.704 93.2468 26.5062C93.049 26.3084 92.7808 26.1973 92.501 26.1973Z" fill="#284268"/>
<path d="M79.8018 28.3066H80.4228C80.7025 28.3066 80.9708 28.1955 81.1686 27.9977C81.3664 27.7999 81.4775 27.5317 81.4775 27.252C81.4775 26.9722 81.3664 26.704 81.1686 26.5062C80.9708 26.3084 80.7025 26.1973 80.4228 26.1973H79.8018C79.522 26.1973 79.2538 26.3084 79.056 26.5062C78.8582 26.704 78.7471 26.9722 78.7471 27.252C78.7471 27.5317 78.8582 27.7999 79.056 27.9977C79.2538 28.1955 79.522 28.3066 79.8018 28.3066Z" fill="#284268"/>
<path d="M64.6035 46.8223C66.8981 46.8223 69.1411 46.1419 71.049 44.8671C72.9569 43.5923 74.4439 41.7803 75.322 39.6604C76.2001 37.5405 76.4298 35.2078 75.9822 32.9574C75.5345 30.7069 74.4296 28.6397 72.8071 27.0172C71.1846 25.3947 69.1173 24.2897 66.8669 23.8421C64.6164 23.3944 62.2837 23.6242 60.1638 24.5023C58.0439 25.3804 56.232 26.8674 54.9572 28.7752C53.6824 30.6831 53.002 32.9261 53.002 35.2207C53.0054 38.2966 54.2289 41.2454 56.4038 43.4204C58.5788 45.5954 61.5277 46.8188 64.6035 46.8223ZM64.6035 25.7285C66.4809 25.7285 68.3161 26.2852 69.8771 27.3282C71.4381 28.3713 72.6547 29.8537 73.3732 31.5882C74.0916 33.3227 74.2796 35.2312 73.9133 37.0725C73.5471 38.9138 72.643 40.6052 71.3155 41.9327C69.988 43.2602 68.2967 44.1642 66.4554 44.5305C64.614 44.8968 62.7055 44.7088 60.971 43.9903C59.2365 43.2719 57.7541 42.0553 56.7111 40.4943C55.668 38.9333 55.1113 37.0981 55.1113 35.2207C55.1142 32.7041 56.1152 30.2914 57.8947 28.5119C59.6742 26.7324 62.0869 25.7314 64.6035 25.7285Z" fill="#284268"/>
<path d="M61.5082 39.8176C61.706 40.0153 61.9743 40.1265 62.254 40.1265C62.5337 40.1265 62.8019 40.0153 62.9997 39.8176L70.7046 32.1127C70.8997 31.9144 71.0086 31.647 71.0074 31.3688C71.0063 31.0905 70.8953 30.824 70.6985 30.6273C70.5018 30.4305 70.2353 30.3195 69.9571 30.3184C69.6788 30.3172 69.4114 30.4261 69.2131 30.6212L62.2541 37.5802L59.9932 35.3195C59.8957 35.2194 59.7794 35.1396 59.6509 35.0848C59.5224 35.03 59.3842 35.0013 59.2445 35.0004C59.1048 34.9994 58.9663 35.0262 58.8371 35.0793C58.7078 35.1323 58.5904 35.2104 58.4916 35.3092C58.3928 35.408 58.3146 35.5254 58.2616 35.6547C58.2085 35.7839 58.1817 35.9224 58.1826 36.0621C58.1836 36.2018 58.2123 36.34 58.267 36.4685C58.3218 36.597 58.4016 36.7134 58.5017 36.8108L61.5082 39.8176Z" fill="#284268"/>
<circle cx="7.35938" cy="8.99805" r="2" fill="#53B175"/>
<circle cx="114.359" cy="59.998" r="2" fill="#53B175"/>
<ellipse cx="18.3594" cy="98.498" rx="1" ry="1.5" fill="#53B175"/>
<circle cx="102.359" cy="2.99805" r="1" fill="#53B175"/>
<g clip-path="url(#clip0_1496_4911)">
<path d="M107.542 93.9914L105.851 94.8556L106.716 96.5466C106.928 96.9621 106.753 97.4805 106.337 97.6929C105.921 97.9053 105.399 97.7436 105.186 97.3281L104.322 95.6371L102.631 96.5013C102.216 96.7136 101.697 96.5385 101.485 96.1229C101.272 95.7073 101.434 95.1845 101.85 94.9722L103.541 94.108L102.676 92.4169C102.464 92.0015 102.639 91.4831 103.055 91.2706C103.471 91.0582 103.993 91.22 104.206 91.6354L105.07 93.3265L106.761 92.4622C107.176 92.2499 107.695 92.4251 107.907 92.8407C108.12 93.2563 107.958 93.779 107.542 93.9914Z" fill="#53B175"/>
</g>
<g clip-path="url(#clip1_1496_4911)">
<path d="M3.801 58.6041L2.78434 58.3317L2.51192 59.3483C2.44499 59.5981 2.18042 59.7464 1.93055 59.6794C1.68069 59.6124 1.52568 59.3518 1.59261 59.102L1.86503 58.0853L0.848358 57.8129C0.598581 57.746 0.450338 57.4814 0.517291 57.2316C0.584243 56.9817 0.84491 56.8267 1.09469 56.8936L2.11135 57.166L2.38377 56.1494C2.4507 55.8996 2.71527 55.7513 2.96514 55.8183C3.21501 55.8852 3.37001 56.1459 3.30308 56.3957L3.03067 57.4124L4.04733 57.6848C4.29711 57.7517 4.44535 58.0163 4.3784 58.2661C4.31145 58.516 4.05078 58.671 3.801 58.6041Z" fill="#53B175"/>
</g>
<g clip-path="url(#clip2_1496_4911)">
<path d="M83.0355 2.77693H81.8539V3.95844C81.8539 4.24872 81.6101 4.48633 81.3198 4.48633C81.0294 4.48633 80.7856 4.24872 80.7856 3.95844V2.77693H79.6041C79.3138 2.77693 79.0762 2.53312 79.0762 2.24274C79.0762 1.95235 79.3138 1.70855 79.6041 1.70855H80.7856V0.527034C80.7856 0.236756 81.0294 -0.000851154 81.3198 -0.000851154C81.6101 -0.000851154 81.8539 0.236756 81.8539 0.527034V1.70855H83.0355C83.3257 1.70855 83.5634 1.95235 83.5634 2.24274C83.5634 2.53312 83.3257 2.77693 83.0355 2.77693Z" fill="#53B175"/>
</g>
<defs>
<clipPath id="clip0_1496_4911">
<rect width="7.21235" height="7.21235" fill="white" transform="matrix(0.890451 -0.455079 -0.455079 -0.890451 103.126 99.334)"/>
</clipPath>
<clipPath id="clip1_1496_4911">
<rect width="3.99731" height="3.99731" fill="white" transform="matrix(0.965926 0.258819 0.258819 -0.965926 0 59.1621)"/>
</clipPath>
<clipPath id="clip2_1496_4911">
<rect width="4.48718" height="4.48718" fill="white" transform="matrix(1 0 0 -1 79.0762 4.48633)"/>
</clipPath>
</defs>
</svg>
