<svg width="19" height="14" viewBox="0 0 19 14" fill="none" xmlns="http://www.w3.org/2000/svg">
<path d="M17.6346 0H6.54999C6.27149 0 6.04613 0.173943 6.04613 0.388901C6.04613 0.603859 6.27149 0.777802 6.54999 0.777802H16.4183L0.147622 13.3362C-0.0492073 13.4881 -0.0492073 13.7342 0.147622 13.8861C0.246014 13.962 0.374966 14 0.503871 14C0.632777 14 0.761682 13.962 0.86012 13.8861L17.1307 1.3277V8.94447C17.1307 9.15943 17.356 9.33337 17.6346 9.33337C17.9131 9.33337 18.1384 9.15943 18.1384 8.94447V0.388901C18.1384 0.173943 17.913 0 17.6346 0Z" fill="white"/>
</svg>
