<svg width="46" height="46" viewBox="0 0 46 46" fill="none" xmlns="http://www.w3.org/2000/svg">
<circle cx="23" cy="23" r="23" fill="#EAF3FF"/>
<path d="M38.2307 20.9373L35.4996 19.6902L33.0889 15.8442C32.3921 14.7295 31.1659 14.0536 29.8491 14.0606H19.5793C18.3879 14.0606 17.2592 14.611 16.5346 15.5586L13.4202 19.6344L8.22954 21.0558C6.91272 21.4181 6 22.6234 6 23.989V25.9747C6 27.6538 7.33772 29.0403 9.01684 29.0403H9.46275C9.99923 31.1096 12.1103 32.3498 14.1796 31.8133C15.5382 31.458 16.6042 30.3989 16.9526 29.0403H28.6577C29.1941 31.1096 31.3052 32.3498 33.3745 31.8133C34.7332 31.458 35.7992 30.3989 36.1475 29.0403H36.9836C38.6627 29.0403 40.0004 27.6538 40.0004 25.9747V23.7103C40.0074 22.5189 39.3107 21.432 38.2307 20.9373ZM13.2042 30.5313C11.8386 30.5313 10.7308 29.4235 10.7308 28.0579C10.7308 26.6923 11.8386 25.5845 13.2042 25.5845C14.5698 25.5845 15.6776 26.6923 15.6776 28.0579C15.6845 29.4165 14.5767 30.5243 13.2042 30.5313ZM32.3991 30.5313C31.0335 30.5313 29.9257 29.4235 29.9257 28.0579C29.9257 26.6923 31.0335 25.5845 32.3991 25.5845C33.7647 25.5845 34.8725 26.6923 34.8725 28.0579C34.8795 29.4165 33.7717 30.5243 32.3991 30.5313ZM36.9836 27.6468H36.2451C36.0151 25.5218 34.0991 23.989 31.9741 24.2259C30.1696 24.421 28.7482 25.8493 28.5532 27.6468H17.0501C16.8202 25.5218 14.9042 23.989 12.7792 24.2259C10.9747 24.421 9.55332 25.8493 9.35824 27.6468H9.00987C8.09716 27.6468 7.38649 26.8874 7.38649 25.9747V23.989C7.37953 23.2435 7.8742 22.5955 8.59184 22.3935L14.0194 20.9095C14.1657 20.8677 14.2981 20.784 14.3886 20.6586L17.6354 16.4016C18.1022 15.8024 18.8198 15.4541 19.5793 15.4541H29.8491C30.6851 15.4471 31.4725 15.8721 31.9114 16.5828L34.4336 20.6099C34.5032 20.7283 34.6147 20.8189 34.7332 20.8746L37.6455 22.2054C38.2307 22.4771 38.607 23.0624 38.6 23.7103V25.9747H38.607C38.607 26.8874 37.8963 27.6468 36.9836 27.6468Z" fill="#1A4C8E"/>
</svg>
