<svg width="32" height="32" viewBox="0 0 32 32" fill="none" xmlns="http://www.w3.org/2000/svg">
<path d="M29.887 15.559L25.9 7.553C25.8097 7.37017 25.6652 7.2196 25.4863 7.12173C25.3074 7.02387 25.1027 6.98346 24.9 7.006L18.7 7.696C18.3538 6.98834 17.7432 6.44524 17 6.184V5C17 4.73478 16.8946 4.48043 16.7071 4.29289C16.5196 4.10536 16.2652 4 16 4C15.7348 4 15.4804 4.10536 15.2929 4.29289C15.1054 4.48043 15 4.73478 15 5V6.184C14.5283 6.35163 14.1061 6.63462 13.7718 7.00717C13.4375 7.37973 13.2018 7.83001 13.086 8.317L6.886 9.006C6.71986 9.02431 6.56097 9.08397 6.42384 9.17952C6.2867 9.27508 6.17571 9.40349 6.101 9.553L2.111 17.553C2.03894 17.691 2.00089 17.8443 2 18C2 19.0609 2.42143 20.0783 3.17157 20.8284C3.92172 21.5786 4.93913 22 6 22H8C9.06087 22 10.0783 21.5786 10.8284 20.8284C11.5786 20.0783 12 19.0609 12 18C11.9994 17.8519 11.9652 17.7059 11.9 17.573C11.9 17.565 8.54 10.835 8.54 10.835L13.315 10.304C13.6576 11.0087 14.2624 11.5514 15 11.816V25H9C8.46397 25.0001 7.93777 25.1439 7.47613 25.4163C7.01448 25.6887 6.63426 26.0798 6.375 26.549C6.29779 26.7018 6.2611 26.8719 6.26844 27.0429C6.27578 27.2139 6.32691 27.3802 6.41693 27.5258C6.50695 27.6715 6.63285 27.7915 6.78256 27.8745C6.93228 27.9576 7.10081 28.0008 7.272 28H24.728C24.8994 28.0013 25.0683 27.9585 25.2185 27.8757C25.3686 27.7928 25.4949 27.6728 25.5853 27.5271C25.6757 27.3814 25.7271 27.2149 25.7345 27.0436C25.742 26.8724 25.7053 26.702 25.628 26.549C25.3685 26.0794 24.9878 25.688 24.5256 25.4155C24.0634 25.1431 23.5365 24.9996 23 25H17V11.816C17.4717 11.6484 17.8939 11.3654 18.2282 10.9928C18.5625 10.6203 18.7982 10.17 18.914 9.683L23.283 9.2C23.283 9.2 20.105 15.571 20.101 15.581C20.0367 15.7115 20.0022 15.8546 20 16C20 17.0609 20.4214 18.0783 21.1716 18.8284C21.9217 19.5786 22.9391 20 24 20H26C27.0609 20 28.0783 19.5786 28.8284 18.8284C29.5786 18.0783 30 17.0609 30 16C29.9975 15.8462 29.9588 15.6951 29.887 15.559ZM9.382 17H4.618L7 12.236L9.382 17ZM16 10C15.8022 10 15.6089 9.94135 15.4444 9.83147C15.28 9.72159 15.1518 9.56541 15.0761 9.38268C15.0004 9.19996 14.9806 8.99889 15.0192 8.80491C15.0578 8.61093 15.153 8.43275 15.2929 8.29289C15.4327 8.15304 15.6109 8.0578 15.8049 8.01921C15.9989 7.98063 16.2 8.00043 16.3827 8.07612C16.5654 8.15181 16.7216 8.27998 16.8315 8.44443C16.9414 8.60888 17 8.80222 17 9C17 9.26522 16.8946 9.51957 16.7071 9.70711C16.5196 9.89464 16.2652 10 16 10ZM25 10.237L27.382 15H22.618L25 10.237Z" fill="#1A4C8E"/>
</svg>
