<svg width="67" height="67" viewBox="0 0 67 67" fill="none" xmlns="http://www.w3.org/2000/svg">
<g clip-path="url(#clip0_1498_5509)">
<path d="M49.0366 51.4468C48.8105 51.672 48.5367 51.842 48.2172 51.9584L47.8949 52.0552C47.8949 52.0552 4.43166 69.5916 1.05211 66.1998C-2.32744 62.8078 15.367 19.4087 15.367 19.4087L15.465 19.0868C15.5826 18.7677 15.7537 18.4945 15.9797 18.2693C18.6834 15.5754 28.2759 20.8181 37.4041 29.9797C46.5324 39.1413 51.7402 48.753 49.0366 51.4468Z" fill="url(#paint0_linear_1498_5509)"/>
<path d="M46.3323 52.6783C44.0449 53.5853 39.4648 55.3807 34.0567 57.3903C30.749 58.6199 27.1313 59.9296 23.5389 61.1639C20.3997 62.2427 17.2792 63.266 14.4038 64.1282C12.4283 62.468 10.4651 60.6673 8.54171 58.737C6.61832 56.8066 4.82493 54.8367 3.17188 52.8552C4.04453 49.9831 5.07919 46.8662 6.16952 43.731C7.41689 40.143 8.73978 36.5301 9.9814 33.227C12.0108 27.8262 13.8228 23.2529 14.7381 20.9688C20.5698 24.1311 26.8014 28.808 32.6692 34.6972C38.5371 40.5865 43.1912 46.8351 46.3323 52.6783Z" fill="url(#paint1_linear_1498_5509)"/>
<path d="M49.0366 51.4464C48.8111 51.6724 48.5366 51.8415 48.2172 51.9587L47.8953 52.0547C47.8953 52.0547 47.3334 52.2814 46.3328 52.6782C44.0454 53.5852 39.4654 55.3806 34.0573 57.3902C30.7496 58.6198 27.1318 59.9295 23.5395 61.1638C20.417 58.8089 17.2874 56.0884 14.255 53.0449C11.2227 50.0014 8.51363 46.8618 6.16992 43.7309C7.41729 40.143 8.74019 36.5301 9.98181 33.227C12.0112 27.8262 13.8232 23.2528 14.7385 20.9687C15.1389 19.9696 15.3677 19.4085 15.3677 19.4085L15.4649 19.0868C15.5834 18.7679 15.7534 18.4941 15.9802 18.2693C18.684 15.5753 28.2756 20.8184 37.4045 29.9792C46.5323 39.1418 51.7404 48.7524 49.0366 51.4464Z" fill="url(#paint2_linear_1498_5509)"/>
<path d="M49.0361 51.4463C48.8106 51.6723 48.5361 51.8414 48.2167 51.9586L47.8948 52.0546C47.8948 52.0546 47.3329 52.2813 46.3323 52.6781C44.0449 53.5851 39.4649 55.3805 34.0568 57.3901C29.6548 54.4911 25.1456 50.8173 20.8337 46.4896C16.5218 42.1619 12.8644 37.6393 9.98145 33.227C12.0108 27.8262 13.8229 23.2528 14.7381 20.9687C15.1386 19.9696 15.3673 19.4085 15.3673 19.4085L15.4646 19.0868C15.5831 18.7679 15.753 18.4941 15.9799 18.2693C18.6837 15.5753 28.2752 20.8184 37.4042 29.9792C46.5318 39.1416 51.7399 48.7523 49.0361 51.4463Z" fill="url(#paint3_linear_1498_5509)"/>
<path d="M49.036 51.4471C46.3318 54.1414 36.7395 48.8987 27.6112 39.737C18.4829 30.5753 13.275 20.9641 15.9792 18.2696C18.6833 15.5751 28.2757 20.8179 37.404 29.9796C46.5323 39.1414 51.7402 48.7527 49.036 51.4471Z" fill="url(#paint4_linear_1498_5509)"/>
<path d="M47.3505 48.9775C45.3527 50.9681 37.2619 46.0868 29.2792 38.075C21.2965 30.0631 16.4447 21.9546 18.4424 19.9641C20.4402 17.9735 28.531 22.8548 36.5137 30.8667C44.4964 38.8785 49.3483 46.987 47.3505 48.9775Z" fill="url(#paint5_linear_1498_5509)"/>
<path d="M49.0364 51.4465C51.7401 48.7527 46.5324 39.1412 37.404 29.9796C32.0514 24.6076 26.5399 20.584 22.3506 18.7168C22.5142 19.0178 22.6967 19.3162 22.9006 19.6105C23.2321 20.0887 23.6202 20.5246 24.0571 20.9176L26.3751 23.2516C26.1079 23.3729 25.8624 23.4688 25.6559 23.5415C25.2863 23.6718 25.0699 24.0541 25.1473 24.4382L25.9675 28.5126C26.04 28.8728 26.2927 29.1464 26.6085 29.266L48.8624 51.601C48.9231 51.5529 48.9813 51.5015 49.0364 51.4465Z" fill="url(#paint6_linear_1498_5509)"/>
<path d="M34.2398 38.7874L36.5161 41.5086L47.1197 52.1509C47.9302 52.128 48.5814 51.9003 49.0366 51.4467C51.3996 49.0921 47.7207 41.4558 40.6637 33.4531C38.4647 34.3715 36.3683 35.5737 34.4324 37.0518C33.8854 37.4691 33.7983 38.2597 34.2398 38.7874Z" fill="url(#paint7_linear_1498_5509)"/>
<path d="M36.5161 41.5087L34.2398 38.7875C33.7983 38.2598 33.8854 37.4693 34.4322 37.0517C41.4867 31.6658 50.6628 29.9165 59.2327 32.3813C61.3896 33.0015 63.4549 33.8713 65.388 34.9723C65.9861 35.3129 66.1777 36.0853 65.8103 36.6672L63.9166 39.6672C63.5732 40.2111 62.8649 40.3888 62.3039 40.0744C60.82 39.2432 59.2377 38.5835 57.5857 38.1085C50.8837 36.1809 43.7106 37.5259 38.1683 41.6977C37.6546 42.0843 36.9285 42.0018 36.5161 41.5087Z" fill="url(#paint8_linear_1498_5509)"/>
<path d="M16.8451 13.2587L14.7783 11.132C13.8414 10.168 13.5594 8.61636 14.1064 7.43653C14.7415 6.06661 16.2658 5.6651 17.4934 6.54428C18.5508 7.30157 19.0698 8.79078 18.7294 10.0912L17.9787 12.9601C17.8461 13.4671 17.2104 13.6346 16.8451 13.2587Z" fill="url(#paint9_linear_1498_5509)"/>
<path d="M13.1902 15.5677L10.2555 15.1412C8.92524 14.948 7.75587 13.8897 7.47052 12.6209C7.13917 11.1476 8.10289 9.90035 9.61197 9.84926C10.9117 9.80523 12.2308 10.6695 12.7536 11.908L13.9069 14.6402C14.1108 15.1229 13.7088 15.6431 13.1902 15.5677Z" fill="url(#paint10_linear_1498_5509)"/>
<path d="M52.4833 49.6823L55.4368 49.415C56.7755 49.2939 58.1587 50.0513 58.7311 51.2191C59.3958 52.5749 58.7484 54.012 57.2925 54.4126C56.0384 54.7575 54.5547 54.2234 53.7584 53.1404L52.0017 50.7511C51.6914 50.3288 51.9613 49.7295 52.4833 49.6823Z" fill="url(#paint11_linear_1498_5509)"/>
<path d="M52.9901 45.3873L55.1688 43.3753C56.1563 42.4634 57.7147 42.221 58.8802 42.7978C60.2336 43.4677 60.5961 45.0016 59.6859 46.2065C58.9019 47.2443 57.3999 47.7251 56.1086 47.3518L53.2597 46.5282C52.7564 46.3826 52.6052 45.7428 52.9901 45.3873Z" fill="url(#paint12_linear_1498_5509)"/>
<path d="M27.2767 29.2831C26.6989 29.4694 26.0882 29.1074 25.9684 28.5122L25.1481 24.4378C25.0708 24.0535 25.2871 23.6714 25.6567 23.5411C26.0887 23.3889 26.6889 23.1384 27.3094 22.7569C25.4354 22.1383 23.9105 21.0656 22.9016 19.6101C20.9995 16.8659 20.8504 13.7727 22.5026 11.3359C24.1375 8.92449 27.1584 7.74807 30.0204 8.4088C33.1492 9.13106 35.347 11.8687 35.8994 15.7322C35.9224 15.893 35.9428 16.0531 35.9604 16.2125C36.728 15.7628 37.3482 15.208 37.7367 14.587C38.72 13.0153 38.8133 10.6698 37.9747 8.61157C37.4424 7.30527 36.6207 6.30628 35.694 5.80378C35.2806 5.5797 35.0603 5.1147 35.1711 4.65779L36.1108 0.782927C36.2548 0.189487 36.8869 -0.152048 37.4572 0.0664092C40.0872 1.07364 42.2511 3.31373 43.4935 6.36272C45.0548 10.1946 44.7849 14.5569 42.7889 17.7476C41.2096 20.2718 38.2971 22.1547 34.9293 22.9507C34.1728 24.5324 33.0406 25.9219 31.5557 27.0603C29.9701 28.2757 28.3274 28.9444 27.2767 29.2831ZM28.4448 14.1893C28.0551 14.1886 27.6366 14.3826 27.4351 14.68C27.1341 15.124 27.5341 15.8325 27.7994 16.2152C28.1631 16.7401 29.01 17.1316 30.0768 17.307C30.0614 17.0695 30.0358 16.8258 30 16.5757C29.8096 15.2446 29.3162 14.3623 28.6799 14.2154C28.6042 14.1979 28.5252 14.1894 28.4448 14.1893Z" fill="url(#paint13_radial_1498_5509)"/>
<path d="M40.2316 20.5001L35.96 16.2129C35.96 16.2129 36.2328 20.3526 34.9287 22.9512C36.9148 22.4819 38.7423 21.6342 40.2316 20.5001Z" fill="url(#paint14_linear_1498_5509)"/>
<path d="M27.7989 16.2143C27.6046 15.9339 27.3391 15.4791 27.3286 15.0812L21.3613 15.0703C21.3706 16.5808 21.886 18.1446 22.9011 19.6092C23.91 21.0648 25.4348 22.1375 27.3089 22.756C27.3089 22.756 30.3673 21.8282 30.0765 17.3061C29.0095 17.1308 28.1626 16.7392 27.7989 16.2143Z" fill="url(#paint15_linear_1498_5509)"/>
<path d="M40.4527 29.7864C39.0675 30.6891 37.8854 31.8782 36.9904 33.2692C36.7891 33.582 36.3246 33.5812 36.1244 33.2676C35.2344 31.8734 34.0569 30.68 32.6749 29.7722C32.3681 29.5707 32.369 29.1125 32.6764 28.9122C34.0616 28.0095 35.2436 26.8204 36.1387 25.4294C36.3399 25.1166 36.8045 25.1174 37.0047 25.431C37.8947 26.8252 39.0723 28.0186 40.4542 28.9264C40.761 29.1279 40.7601 29.5861 40.4527 29.7864Z" fill="url(#paint16_linear_1498_5509)"/>
<path d="M65.7808 27.9661C64.3956 28.8688 63.2135 30.0579 62.3186 31.4489C62.1173 31.7616 61.6527 31.7609 61.4526 31.4473C60.5625 30.0531 59.3851 28.8596 58.003 27.9518C57.6962 27.7504 57.6971 27.2922 58.0046 27.0919C59.3898 26.1892 60.5717 25.0001 61.4668 23.6091C61.668 23.2963 62.1326 23.2971 62.3328 23.6107C63.2228 25.0049 64.4004 26.1983 65.7824 27.1061C66.0892 27.3075 66.0882 27.7657 65.7808 27.9661Z" fill="url(#paint17_linear_1498_5509)"/>
<path d="M53.9195 7.73562C52.5343 8.63832 51.3522 9.82742 50.4572 11.2184C50.2559 11.5312 49.7914 11.5304 49.5912 11.2168C48.7012 9.82259 47.5237 8.62918 46.1417 7.72138C45.8349 7.51991 45.8358 7.0617 46.1432 6.8614C47.5284 5.9587 48.7104 4.7696 49.6055 3.37864C49.8067 3.06584 50.2713 3.06663 50.4715 3.3802C51.3615 4.77443 52.5391 5.96785 53.921 6.87564C54.2278 7.07711 54.2269 7.53533 53.9195 7.73562Z" fill="url(#paint18_linear_1498_5509)"/>
<path d="M52.6358 21.6866C51.626 22.3447 50.7645 23.2115 50.112 24.2254C49.9652 24.4534 49.6266 24.4527 49.4808 24.2242C48.832 23.2078 47.9736 22.3379 46.9661 21.6762C46.7426 21.5293 46.7431 21.1953 46.9673 21.0493C47.9772 20.3912 48.8387 19.5244 49.4912 18.5105C49.6379 18.2825 49.9766 18.283 50.1224 18.5117C50.7712 19.528 51.6297 20.398 52.637 21.0597C52.8607 21.2066 52.86 21.5405 52.6358 21.6866Z" fill="url(#paint19_linear_1498_5509)"/>
<path d="M56.7491 13.8487C55.7393 14.5068 54.8777 15.3736 54.2252 16.3875C54.0785 16.6155 53.7398 16.6148 53.594 16.3863C52.9453 15.37 52.0869 14.5 51.0794 13.8383C50.8559 13.6914 50.8564 13.3575 51.0806 13.2114C52.0904 12.5533 52.952 11.6865 53.6045 10.6726C53.7512 10.4446 54.0899 10.4451 54.2357 10.6738C54.8845 11.6902 55.7429 12.5601 56.7503 13.2218C56.9738 13.3687 56.9732 13.7026 56.7491 13.8487Z" fill="url(#paint20_linear_1498_5509)"/>
</g>
<defs>
<linearGradient id="paint0_linear_1498_5509" x1="9.21007" y1="32.5969" x2="28.5506" y2="60.4301" gradientUnits="userSpaceOnUse">
<stop stop-color="#FFE548"/>
<stop offset="0.1758" stop-color="#FFDE50"/>
<stop offset="0.4446" stop-color="#FFCA65"/>
<stop offset="0.7709" stop-color="#FFAA87"/>
<stop offset="1" stop-color="#FF90A4"/>
</linearGradient>
<linearGradient id="paint1_linear_1498_5509" x1="24.2753" y1="54.4166" x2="20.5411" y2="67.5637" gradientUnits="userSpaceOnUse">
<stop stop-color="#FBA5C2" stop-opacity="0"/>
<stop offset="0.3857" stop-color="#FCA0BA" stop-opacity="0.386"/>
<stop offset="0.9737" stop-color="#FF91A5" stop-opacity="0.974"/>
<stop offset="1" stop-color="#FF90A4"/>
</linearGradient>
<linearGradient id="paint2_linear_1498_5509" x1="28.0272" y1="46.5752" x2="23.4032" y2="63.1638" gradientUnits="userSpaceOnUse">
<stop stop-color="#FBA5C2" stop-opacity="0"/>
<stop offset="0.3857" stop-color="#FCA0BA" stop-opacity="0.386"/>
<stop offset="0.9737" stop-color="#FF91A5" stop-opacity="0.974"/>
<stop offset="1" stop-color="#FF90A4"/>
</linearGradient>
<linearGradient id="paint3_linear_1498_5509" x1="31.0973" y1="37.5657" x2="25.321" y2="56.4473" gradientUnits="userSpaceOnUse">
<stop stop-color="#FBA5C2" stop-opacity="0"/>
<stop offset="0.3857" stop-color="#FCA0BA" stop-opacity="0.386"/>
<stop offset="0.9737" stop-color="#FF91A5" stop-opacity="0.974"/>
<stop offset="1" stop-color="#FF90A4"/>
</linearGradient>
<linearGradient id="paint4_linear_1498_5509" x1="34.3835" y1="30.6316" x2="28.2643" y2="44.3921" gradientUnits="userSpaceOnUse">
<stop stop-color="#FFE548"/>
<stop offset="0.1758" stop-color="#FFDE50"/>
<stop offset="0.4446" stop-color="#FFCA65"/>
<stop offset="0.7709" stop-color="#FFAA87"/>
<stop offset="1" stop-color="#FF90A4"/>
</linearGradient>
<linearGradient id="paint5_linear_1498_5509" x1="28.6119" y1="41.0301" x2="37.2463" y2="27.8046" gradientUnits="userSpaceOnUse">
<stop stop-color="#FFD00D" stop-opacity="0"/>
<stop offset="1" stop-color="#DB722B"/>
</linearGradient>
<linearGradient id="paint6_linear_1498_5509" x1="36.611" y1="35.2302" x2="31.2146" y2="18.6657" gradientUnits="userSpaceOnUse">
<stop stop-color="#FFD00D" stop-opacity="0"/>
<stop offset="1" stop-color="#DB722B"/>
</linearGradient>
<linearGradient id="paint7_linear_1498_5509" x1="43.0252" y1="44.3671" x2="38.6694" y2="37.2071" gradientUnits="userSpaceOnUse">
<stop stop-color="#A34A9E" stop-opacity="0"/>
<stop offset="1" stop-color="#343168"/>
</linearGradient>
<linearGradient id="paint8_linear_1498_5509" x1="49.8828" y1="42.1286" x2="50.0813" y2="31.2127" gradientUnits="userSpaceOnUse">
<stop stop-color="#A34A9E"/>
<stop offset="1" stop-color="#343168"/>
</linearGradient>
<linearGradient id="paint9_linear_1498_5509" x1="15.7911" y1="9.3041" x2="18.1907" y2="10.3483" gradientUnits="userSpaceOnUse">
<stop stop-color="#3FA9F5"/>
<stop offset="1" stop-color="#666AD6"/>
</linearGradient>
<linearGradient id="paint10_linear_1498_5509" x1="10.0005" y1="13.0509" x2="12.538" y2="12.4169" gradientUnits="userSpaceOnUse">
<stop stop-color="#A34A9E"/>
<stop offset="1" stop-color="#343168"/>
</linearGradient>
<linearGradient id="paint11_linear_1498_5509" x1="55.9838" y1="51.4088" x2="49.708" y2="55.1924" gradientUnits="userSpaceOnUse">
<stop stop-color="#FF4974"/>
<stop offset="0.4497" stop-color="#FE4773"/>
<stop offset="0.6292" stop-color="#FC406D"/>
<stop offset="0.7605" stop-color="#F73464"/>
<stop offset="0.8683" stop-color="#F12257"/>
<stop offset="0.9606" stop-color="#E80C46"/>
<stop offset="1" stop-color="#E4003D"/>
</linearGradient>
<linearGradient id="paint12_linear_1498_5509" x1="57.1147" y1="43.6319" x2="54.1845" y2="52.0132" gradientUnits="userSpaceOnUse">
<stop stop-color="#C4F8B6"/>
<stop offset="1" stop-color="#3B8EAC"/>
</linearGradient>
<radialGradient id="paint13_radial_1498_5509" cx="0" cy="0" r="1" gradientUnits="userSpaceOnUse" gradientTransform="translate(22.2732 4.87363) rotate(0.114591) scale(26.2303 26.2303)">
<stop stop-color="#FF4974"/>
<stop offset="0.4497" stop-color="#FE4773"/>
<stop offset="0.6292" stop-color="#FC406D"/>
<stop offset="0.7605" stop-color="#F73464"/>
<stop offset="0.8683" stop-color="#F12257"/>
<stop offset="0.9606" stop-color="#E80C46"/>
<stop offset="1" stop-color="#E4003D"/>
</radialGradient>
<linearGradient id="paint14_linear_1498_5509" x1="40.9528" y1="23.5755" x2="31.4978" y2="16.7365" gradientUnits="userSpaceOnUse">
<stop stop-color="#E4003D" stop-opacity="0"/>
<stop offset="0.3434" stop-color="#CD0E2D" stop-opacity="0.343"/>
<stop offset="1" stop-color="#972E07"/>
</linearGradient>
<linearGradient id="paint15_linear_1498_5509" x1="26.6032" y1="18.6902" x2="29.247" y2="21.1454" gradientUnits="userSpaceOnUse">
<stop stop-color="#E4003D" stop-opacity="0"/>
<stop offset="0.3434" stop-color="#CD0E2D" stop-opacity="0.343"/>
<stop offset="1" stop-color="#972E07"/>
</linearGradient>
<linearGradient id="paint16_linear_1498_5509" x1="35.2165" y1="27.5583" x2="39.5751" y2="33.3939" gradientUnits="userSpaceOnUse">
<stop stop-color="#3FA9F5"/>
<stop offset="1" stop-color="#666AD6"/>
</linearGradient>
<linearGradient id="paint17_linear_1498_5509" x1="60.545" y1="25.7424" x2="64.9035" y2="31.578" gradientUnits="userSpaceOnUse">
<stop stop-color="#3FA9F5"/>
<stop offset="1" stop-color="#666AD6"/>
</linearGradient>
<linearGradient id="paint18_linear_1498_5509" x1="48.6874" y1="5.50993" x2="53.0458" y2="11.3455" gradientUnits="userSpaceOnUse">
<stop stop-color="#A34A9E"/>
<stop offset="1" stop-color="#343168"/>
</linearGradient>
<linearGradient id="paint19_linear_1498_5509" x1="48.819" y1="20.0666" x2="51.9962" y2="24.3206" gradientUnits="userSpaceOnUse">
<stop stop-color="#C4F8B6"/>
<stop offset="1" stop-color="#3B8EAC"/>
</linearGradient>
<linearGradient id="paint20_linear_1498_5509" x1="52.9336" y1="12.2293" x2="56.1108" y2="16.4833" gradientUnits="userSpaceOnUse">
<stop stop-color="#FFE548"/>
<stop offset="0.1758" stop-color="#FFDE50"/>
<stop offset="0.4446" stop-color="#FFCA65"/>
<stop offset="0.7709" stop-color="#FFAA87"/>
<stop offset="1" stop-color="#FF90A4"/>
</linearGradient>
<clipPath id="clip0_1498_5509">
<rect width="66.6346" height="66.6346" fill="white"/>
</clipPath>
</defs>
</svg>
