<svg width="16" height="17" viewBox="0 0 16 17" fill="none" xmlns="http://www.w3.org/2000/svg">
<path d="M9.35927 3.10128C9.35927 2.9536 9.31312 2.83361 9.22082 2.74131C9.12852 2.64901 9.00853 2.60286 8.86085 2.60286H3.6551C3.50742 2.60286 3.38743 2.64901 3.29513 2.74131C3.20283 2.83361 3.15668 2.9536 3.15668 3.10128V7.2548C3.15668 7.40248 3.20283 7.53171 3.29513 7.64247C3.38743 7.75323 3.50742 7.80861 3.6551 7.80861H8.86085C9.00853 7.80861 9.12852 7.75323 9.22082 7.64247C9.31312 7.53171 9.35927 7.40248 9.35927 7.2548V3.10128ZM8.30705 6.75638H4.15352V3.65508H8.30705V6.75638ZM15.3403 3.65508L13.2359 2.65824C13.1251 2.5844 12.9959 2.56594 12.8482 2.60286C12.7005 2.63978 12.599 2.72285 12.5436 2.85207C12.4883 2.98129 12.479 3.11974 12.5159 3.26742C12.5529 3.4151 12.6452 3.5074 12.7929 3.54432L13.5682 3.98737L13.5128 4.15351C13.5128 4.48579 13.6143 4.78115 13.8174 5.03959C14.0204 5.29803 14.2697 5.48263 14.565 5.5934V11.9067C14.565 12.0544 14.5096 12.1837 14.3989 12.2944C14.2881 12.4052 14.1681 12.4606 14.0389 12.4606C13.9097 12.4606 13.7897 12.4052 13.6789 12.2944C13.5682 12.1837 13.5128 12.0544 13.5128 11.9067V7.75323C13.5128 7.1625 13.3005 6.62716 12.8759 6.1472C12.4513 5.66724 11.9806 5.37187 11.4637 5.26111V2.04906C11.4637 1.49525 11.2607 1.01529 10.8545 0.609169C10.4484 0.203047 9.96845 -1.52588e-05 9.41465 -1.52588e-05H3.15668C2.60287 -1.52588e-05 2.11368 0.203047 1.6891 0.609169C1.26452 1.01529 1.05223 1.49525 1.05223 2.04906V13.6789L0.332282 14.0666C0.110761 14.1773 0 14.325 0 14.5096V16.0603C0 16.208 0.0553803 16.3372 0.166141 16.4479C0.276902 16.5587 0.406122 16.6141 0.553803 16.6141H11.9621C12.1098 16.6141 12.2298 16.5587 12.3221 16.4479C12.4144 16.3372 12.4606 16.208 12.4606 16.0603V14.5096C12.4606 14.325 12.3683 14.1773 12.1837 14.0666L11.4637 13.6789V6.31334C11.7222 6.4241 11.9529 6.61793 12.156 6.89483C12.359 7.17173 12.4606 7.45786 12.4606 7.75323V11.9067C12.4606 12.3498 12.6175 12.7282 12.9313 13.042C13.2451 13.3559 13.6143 13.5128 14.0389 13.5128C14.4635 13.5128 14.8327 13.3559 15.1465 13.042C15.4603 12.7282 15.6172 12.3498 15.6172 11.9067V4.15351C15.6172 3.93199 15.5249 3.76585 15.3403 3.65508ZM11.4637 15.5618H1.05223V14.8419L1.82755 14.4542C2.01215 14.3804 2.10445 14.2327 2.10445 14.0112V2.04906C2.10445 1.79061 2.20598 1.55986 2.40904 1.3568C2.6121 1.15374 2.86132 1.05221 3.15668 1.05221H9.41465C9.67309 1.05221 9.90384 1.15374 10.1069 1.3568C10.31 1.55986 10.4115 1.79061 10.4115 2.04906V14.0112C10.4115 14.2327 10.5038 14.3804 10.6884 14.4542L11.4637 14.8419V15.5618Z" fill="#050B20"/>
</svg>
