<svg width="37" height="41" viewBox="0 0 37 41" fill="none" xmlns="http://www.w3.org/2000/svg">
<g clip-path="url(#clip0_436_1036)">
<path d="M19.5673 3.10128C19.5673 2.9536 19.5211 2.83361 19.4288 2.74131C19.3365 2.64901 19.2165 2.60286 19.0689 2.60286H13.8631C13.7154 2.60286 13.5954 2.64901 13.5031 2.74131C13.4108 2.83361 13.3647 2.9536 13.3647 3.10128V7.2548C13.3647 7.40248 13.4108 7.53171 13.5031 7.64247C13.5954 7.75323 13.7154 7.80861 13.8631 7.80861H19.0689C19.2165 7.80861 19.3365 7.75323 19.4288 7.64247C19.5211 7.53171 19.5673 7.40248 19.5673 7.2548V3.10128ZM18.5151 6.75638H14.3615V3.65508H18.5151V6.75638ZM25.5484 3.65508L23.4439 2.65824C23.3331 2.5844 23.2039 2.56594 23.0562 2.60286C22.9086 2.63978 22.807 2.72285 22.7516 2.85207C22.6963 2.98129 22.687 3.11974 22.724 3.26742C22.7609 3.4151 22.8532 3.5074 23.0009 3.54432L23.7762 3.98737L23.7208 4.15351C23.7208 4.48579 23.8223 4.78115 24.0254 5.03959C24.2285 5.29803 24.4777 5.48263 24.773 5.5934V11.9067C24.773 12.0544 24.7176 12.1837 24.6069 12.2944C24.4961 12.4052 24.3761 12.4606 24.2469 12.4606C24.1177 12.4606 23.9977 12.4052 23.8869 12.2944C23.7762 12.1837 23.7208 12.0544 23.7208 11.9067V7.75323C23.7208 7.1625 23.5085 6.62716 23.0839 6.1472C22.6593 5.66724 22.1886 5.37187 21.6717 5.26111V2.04906C21.6717 1.49525 21.4687 1.01529 21.0625 0.609169C20.6564 0.203047 20.1765 -1.52588e-05 19.6227 -1.52588e-05H13.3647C12.8109 -1.52588e-05 12.3217 0.203047 11.8971 0.609169C11.4725 1.01529 11.2602 1.49525 11.2602 2.04906V13.6789L10.5403 14.0666C10.3188 14.1773 10.208 14.325 10.208 14.5096V16.0603C10.208 16.208 10.2634 16.3372 10.3741 16.4479C10.4849 16.5587 10.6141 16.6141 10.7618 16.6141H22.1702C22.3178 16.6141 22.4378 16.5587 22.5301 16.4479C22.6224 16.3372 22.6686 16.208 22.6686 16.0603V14.5096C22.6686 14.325 22.5763 14.1773 22.3917 14.0666L21.6717 13.6789V6.31334C21.9302 6.4241 22.1609 6.61793 22.364 6.89483C22.567 7.17173 22.6686 7.45786 22.6686 7.75323V11.9067C22.6686 12.3498 22.8255 12.7282 23.1393 13.042C23.4531 13.3559 23.8223 13.5128 24.2469 13.5128C24.6715 13.5128 25.0407 13.3559 25.3545 13.042C25.6683 12.7282 25.8253 12.3498 25.8253 11.9067V4.15351C25.8253 3.93199 25.733 3.76585 25.5484 3.65508ZM21.6717 15.5618H11.2602V14.8419L12.0356 14.4542C12.2202 14.3804 12.3125 14.2327 12.3125 14.0112V2.04906C12.3125 1.79061 12.414 1.55986 12.6171 1.3568C12.8201 1.15374 13.0693 1.05221 13.3647 1.05221H19.6227C19.8811 1.05221 20.1119 1.15374 20.3149 1.3568C20.518 1.55986 20.6195 1.79061 20.6195 2.04906V14.0112C20.6195 14.2327 20.7118 14.3804 20.8964 14.4542L21.6717 14.8419V15.5618Z" fill="#050B20"/>
</g>
<path d="M1.15409 38.5906V29.5452H3.75142C4.80242 29.5452 5.6725 29.7304 6.36168 30.1008C7.05086 30.4627 7.55913 30.9838 7.88649 31.6644C8.22246 32.3364 8.39045 33.1461 8.39045 34.0938C8.39045 35.0241 8.22246 35.8253 7.88649 36.4973C7.55913 37.1692 7.05086 37.6861 6.36168 38.0479C5.6725 38.4097 4.80242 38.5906 3.75142 38.5906H1.15409ZM2.23954 37.6861H3.72558C4.59566 37.6861 5.28915 37.5439 5.80603 37.2597C6.33153 36.9668 6.70627 36.5533 6.93025 36.0191C7.15423 35.4764 7.26623 34.8346 7.26623 34.0938C7.26623 33.3357 7.15423 32.6853 6.93025 32.1425C6.70627 31.5998 6.33153 31.182 5.80603 30.8891C5.28915 30.5962 4.59566 30.4497 3.72558 30.4497H2.23954V37.6861ZM10.0137 38.5906V32.0262H11.0991V38.5906H10.0137ZM10.5564 30.6565C10.341 30.6565 10.1601 30.5876 10.0137 30.4497C9.87584 30.3033 9.80693 30.1224 9.80693 29.907C9.80693 29.6916 9.87584 29.5193 10.0137 29.3901C10.1601 29.2523 10.341 29.1834 10.5564 29.1834C10.7632 29.1834 10.9398 29.2523 11.0862 29.3901C11.2327 29.5193 11.3059 29.6916 11.3059 29.907C11.3059 30.1224 11.2327 30.3033 11.0862 30.4497C10.9398 30.5876 10.7632 30.6565 10.5564 30.6565ZM15.8704 38.7457C15.2588 38.7457 14.716 38.6036 14.2422 38.3193C13.777 38.035 13.4109 37.6344 13.1438 37.1175C12.8768 36.6006 12.7433 35.9976 12.7433 35.3084C12.7433 34.6106 12.8725 34.0076 13.1309 33.4993C13.398 32.9825 13.7684 32.5819 14.2422 32.2976C14.7246 32.0133 15.276 31.8712 15.8963 31.8712C16.5337 31.8712 17.0722 32.0133 17.5115 32.2976C17.9595 32.5819 18.2998 32.9609 18.5324 33.4347C18.7736 33.8999 18.8942 34.4082 18.8942 34.9595C18.8942 35.0457 18.8942 35.1361 18.8942 35.2309C18.8942 35.3257 18.8899 35.4333 18.8812 35.554H13.5574V34.714H17.8216C17.7958 34.1024 17.5977 33.6286 17.2272 33.2926C16.8654 32.9566 16.4131 32.7886 15.8704 32.7886C15.5 32.7886 15.1554 32.8748 14.8366 33.0471C14.5265 33.2107 14.2767 33.4563 14.0872 33.7836C13.8976 34.111 13.8029 34.5202 13.8029 35.0112V35.373C13.8029 35.9158 13.8976 36.3723 14.0872 36.7428C14.2853 37.1046 14.5394 37.376 14.8496 37.5569C15.1683 37.7378 15.5086 37.8282 15.8704 37.8282C16.327 37.8282 16.7017 37.7292 16.9946 37.531C17.2875 37.3329 17.5029 37.0572 17.6407 36.704H18.7133C18.6013 37.1003 18.4161 37.4535 18.1576 37.7636C17.8992 38.0651 17.5761 38.3064 17.1885 38.4873C16.8094 38.6596 16.3701 38.7457 15.8704 38.7457ZM22.8142 38.7457C22.2629 38.7457 21.7847 38.6552 21.3799 38.4743C20.975 38.2934 20.6562 38.0393 20.4236 37.7119C20.1996 37.3846 20.0618 37.0012 20.0101 36.5619H21.1214C21.1645 36.7945 21.2506 37.0055 21.3799 37.1951C21.5177 37.3846 21.7072 37.5396 21.9484 37.6602C22.1896 37.7722 22.4825 37.8282 22.8271 37.8282C23.1286 37.8282 23.3785 37.7852 23.5766 37.699C23.7747 37.6043 23.9212 37.4793 24.016 37.3243C24.1193 37.1692 24.171 36.9969 24.171 36.8074C24.171 36.5317 24.1064 36.325 23.9772 36.1871C23.8566 36.0407 23.6757 35.9287 23.4345 35.8512C23.2019 35.7736 22.9133 35.7047 22.5687 35.6444C22.2586 35.5927 21.9657 35.5238 21.69 35.4377C21.4143 35.3429 21.1688 35.2266 20.9534 35.0888C20.7381 34.9423 20.5701 34.7614 20.4495 34.546C20.3289 34.3307 20.2686 34.0722 20.2686 33.7707C20.2686 33.4003 20.3633 33.0729 20.5528 32.7886C20.751 32.4957 21.0266 32.2717 21.3799 32.1167C21.7417 31.953 22.1638 31.8712 22.6462 31.8712C23.3526 31.8712 23.9212 32.0391 24.3519 32.3751C24.7827 32.7111 25.0325 33.1935 25.1014 33.8224H24.0289C23.9944 33.495 23.8523 33.2409 23.6024 33.06C23.3612 32.8791 23.0382 32.7886 22.6333 32.7886C22.2198 32.7886 21.9054 32.8705 21.69 33.0341C21.4746 33.1978 21.3669 33.4132 21.3669 33.6803C21.3669 33.8525 21.4229 34.0119 21.5349 34.1584C21.6469 34.2962 21.8192 34.4125 22.0518 34.5073C22.293 34.602 22.5859 34.6796 22.9305 34.7399C23.3785 34.8174 23.7791 34.9208 24.1323 35.05C24.4855 35.1706 24.7654 35.3601 24.9722 35.6186C25.1876 35.877 25.2909 36.2431 25.2823 36.7169C25.2909 37.1304 25.1919 37.488 24.9851 37.7895C24.7784 38.091 24.4898 38.3279 24.1193 38.5002C23.7489 38.6639 23.3139 38.7457 22.8142 38.7457ZM29.7263 38.7457C29.1147 38.7457 28.5719 38.6036 28.0981 38.3193C27.6329 38.035 27.2668 37.6344 26.9997 37.1175C26.7327 36.6006 26.5992 35.9976 26.5992 35.3084C26.5992 34.6106 26.7284 34.0076 26.9868 33.4993C27.2539 32.9825 27.6243 32.5819 28.0981 32.2976C28.5805 32.0133 29.1319 31.8712 29.7521 31.8712C30.3896 31.8712 30.9281 32.0133 31.3674 32.2976C31.8154 32.5819 32.1556 32.9609 32.3882 33.4347C32.6295 33.8999 32.7501 34.4082 32.7501 34.9595C32.7501 35.0457 32.7501 35.1361 32.7501 35.2309C32.7501 35.3257 32.7458 35.4333 32.7371 35.554H27.4132V34.714H31.6775C31.6517 34.1024 31.4535 33.6286 31.0831 33.2926C30.7213 32.9566 30.269 32.7886 29.7263 32.7886C29.3559 32.7886 29.0113 32.8748 28.6925 33.0471C28.3824 33.2107 28.1326 33.4563 27.9431 33.7836C27.7535 34.111 27.6588 34.5202 27.6588 35.0112V35.373C27.6588 35.9158 27.7535 36.3723 27.9431 36.7428C28.1412 37.1046 28.3953 37.376 28.7055 37.5569C29.0242 37.7378 29.3645 37.8282 29.7263 37.8282C30.1829 37.8282 30.5576 37.7292 30.8505 37.531C31.1434 37.3329 31.3588 37.0572 31.4966 36.704H32.5692C32.4572 37.1003 32.2719 37.4535 32.0135 37.7636C31.7551 38.0651 31.432 38.3064 31.0444 38.4873C30.6653 38.6596 30.226 38.7457 29.7263 38.7457ZM34.2149 38.5906V29.2867H35.3004V38.5906H34.2149Z" fill="#050B20"/>
<defs>
<clipPath id="clip0_436_1036">
<rect width="16.6141" height="16.6141" fill="white" transform="matrix(1 0 0 -1 9.70898 16.6141)"/>
</clipPath>
</defs>
</svg>
