<svg width="58" height="30" viewBox="0 0 58 30" fill="none" xmlns="http://www.w3.org/2000/svg">
<path fill-rule="evenodd" clip-rule="evenodd" d="M18.0981 3.37509C18.6921 3.26043 19.0855 3.26043 19.2261 3.41361C19.313 3.50901 19.3373 3.66831 19.2244 3.86788C19.1628 3.97554 19.0959 4.06832 18.976 4.21274C13.9235 10.2137 10.0764 19.0707 8.98303 21.6274C8.89966 21.8042 8.81629 21.9784 8.75289 22.0948C8.65389 22.2742 8.51581 22.4221 8.27352 22.4379C8.14065 22.4466 7.95568 22.4134 7.67604 22.2427C4.32304 20.1604 2.33173 17.5634 2.33173 14.7459C2.33173 9.65788 8.82237 5.28934 18.0981 3.37509ZM23.2748 7.20358C23.7498 6.0911 24.5722 3.7112 26.4558 2.76852C27.0272 2.48143 27.7307 2.34488 28.3629 2.32738C28.5044 2.32213 28.6052 2.32738 28.6486 2.32738C33.9226 2.32738 38.8266 3.06349 42.9369 4.3239C42.9707 4.33878 43.0654 4.37554 43.0932 4.38342C43.4753 4.51034 43.6681 4.68714 43.6681 4.90509C43.6681 5.0959 43.5691 5.23857 43.4353 5.37249C43.3728 5.43289 43.2886 5.50904 43.1748 5.60357C42.2256 6.40533 39.3694 8.48675 33.9842 10.562C32.098 11.2912 29.7341 12.1962 27.2661 12.724C25.8132 13.0347 20.4359 13.8619 23.2748 7.20358ZM48.3828 7.39264C48.4783 7.21234 48.6181 7.06266 48.8587 7.04866C48.9959 7.03991 49.1765 7.07229 49.4553 7.24385C52.8083 9.32527 54.8005 11.9231 54.8005 14.7433C54.8005 19.8304 48.3107 24.1998 39.0368 26.1097C38.4384 26.2252 38.0494 26.2244 37.9095 26.0712C37.821 25.9767 37.7958 25.8165 37.9095 25.6152C37.9695 25.511 38.0355 25.4174 38.157 25.2738C43.2087 19.2694 47.0593 10.4115 48.1509 7.85917C48.2334 7.68061 48.3159 7.50731 48.3828 7.39264ZM33.9452 22.2602C33.4684 23.3718 32.6503 25.7508 30.7624 26.697C30.197 26.9815 29.4892 27.1198 28.8553 27.1373C28.7163 27.1417 28.613 27.1382 28.573 27.1382C23.3008 27.1382 18.3959 26.4021 14.2804 25.1408C14.2501 25.1294 14.158 25.0909 14.1285 25.0812C13.7472 24.9517 13.5527 24.7775 13.5527 24.5605C13.5527 24.3688 13.6517 24.2243 13.7889 24.0913C13.8445 24.0335 13.9339 23.9574 14.0468 23.862C14.9943 23.0611 17.854 20.9753 23.2348 18.9026C25.1245 18.1753 27.4875 17.2676 29.9556 16.7415C31.4067 16.4308 36.784 15.6089 33.9452 22.2602ZM28.567 29.4927C44.3472 29.4927 57.1374 22.8913 57.1374 14.7485C57.1374 6.60051 44.3472 0 28.567 0C12.792 0 0 6.60051 0 14.7485C0 22.8913 12.792 29.4927 28.567 29.4927Z" fill="#1C3767"/>
</svg>
