<svg width="43" height="41" viewBox="0 0 43 41" fill="none" xmlns="http://www.w3.org/2000/svg">
<g clip-path="url(#clip0_436_1030)">
<path d="M15.7755 1.55441C15.2586 1.55441 14.8156 1.73901 14.4464 2.10821C14.0772 2.47741 13.8926 2.92968 13.8926 3.46503C13.8926 4.00037 14.0772 4.45264 14.4464 4.82185C14.8156 5.19105 15.2586 5.37565 15.7755 5.37565C16.2924 5.37565 16.7354 5.19105 17.1046 4.82185C17.4738 4.45264 17.6584 4.00037 17.6584 3.46503C17.6584 2.92968 17.4738 2.47741 17.1046 2.10821C16.7354 1.73901 16.2924 1.55441 15.7755 1.55441ZM15.7755 2.60663C15.997 2.60663 16.2001 2.6897 16.3847 2.85584C16.5693 3.02199 16.6616 3.22505 16.6616 3.46503C16.6616 3.70501 16.5693 3.90807 16.3847 4.07421C16.2001 4.24035 15.997 4.32342 15.7755 4.32342C15.554 4.32342 15.3509 4.24035 15.1663 4.07421C14.9817 3.90807 14.8894 3.70501 14.8894 3.46503C14.8894 3.22505 14.9817 3.02199 15.1663 2.85584C15.3509 2.6897 15.554 2.60663 15.7755 2.60663ZM15.7755 11.246C15.2586 11.246 14.8156 11.4306 14.4464 11.7998C14.0772 12.169 13.8926 12.6212 13.8926 13.1566C13.8926 13.6919 14.0772 14.1442 14.4464 14.5134C14.8156 14.8826 15.2586 15.0672 15.7755 15.0672C16.2924 15.0672 16.7354 14.8826 17.1046 14.5134C17.4738 14.1442 17.6584 13.6919 17.6584 13.1566C17.6584 12.6212 17.4738 12.169 17.1046 11.7998C16.7354 11.4306 16.2924 11.246 15.7755 11.246ZM15.7755 12.2982C15.997 12.2982 16.2001 12.3813 16.3847 12.5474C16.5693 12.7135 16.6616 12.9166 16.6616 13.1566C16.6616 13.3966 16.5693 13.5996 16.3847 13.7658C16.2001 13.9319 15.997 14.015 15.7755 14.015C15.554 14.015 15.3509 13.9319 15.1663 13.7658C14.9817 13.5996 14.8894 13.3966 14.8894 13.1566C14.8894 12.9166 14.9817 12.7135 15.1663 12.5474C15.3509 12.3813 15.554 12.2982 15.7755 12.2982ZM21.3135 1.55441C20.7967 1.55441 20.3536 1.73901 19.9844 2.10821C19.6152 2.47741 19.4306 2.92968 19.4306 3.46503C19.4306 4.00037 19.6152 4.45264 19.9844 4.82185C20.3536 5.19105 20.7967 5.37565 21.3135 5.37565C21.8304 5.37565 22.2735 5.19105 22.6427 4.82185C23.0119 4.45264 23.1965 4.00037 23.1965 3.46503C23.1965 2.92968 23.0119 2.47741 22.6427 2.10821C22.2735 1.73901 21.8304 1.55441 21.3135 1.55441ZM21.3135 2.60663C21.5351 2.60663 21.7381 2.6897 21.9227 2.85584C22.1073 3.02199 22.1996 3.22505 22.1996 3.46503C22.1996 3.70501 22.1073 3.90807 21.9227 4.07421C21.7381 4.24035 21.5351 4.32342 21.3135 4.32342C21.092 4.32342 20.889 4.24035 20.7044 4.07421C20.5198 3.90807 20.4275 3.70501 20.4275 3.46503C20.4275 3.22505 20.5198 3.02199 20.7044 2.85584C20.889 2.6897 21.092 2.60663 21.3135 2.60663ZM21.3135 11.246C20.7967 11.246 20.3536 11.4306 19.9844 11.7998C19.6152 12.169 19.4306 12.6212 19.4306 13.1566C19.4306 13.6919 19.6152 14.1442 19.9844 14.5134C20.3536 14.8826 20.7967 15.0672 21.3135 15.0672C21.8304 15.0672 22.2735 14.8826 22.6427 14.5134C23.0119 14.1442 23.1965 13.6919 23.1965 13.1566C23.1965 12.6212 23.0119 12.169 22.6427 11.7998C22.2735 11.4306 21.8304 11.246 21.3135 11.246ZM21.3135 12.2982C21.5351 12.2982 21.7381 12.3813 21.9227 12.5474C22.1073 12.7135 22.1996 12.9166 22.1996 13.1566C22.1996 13.3966 22.1073 13.5996 21.9227 13.7658C21.7381 13.9319 21.5351 14.015 21.3135 14.015C21.092 14.015 20.889 13.9319 20.7044 13.7658C20.5198 13.5996 20.4275 13.3966 20.4275 13.1566C20.4275 12.9166 20.5198 12.7135 20.7044 12.5474C20.889 12.3813 21.092 12.2982 21.3135 12.2982ZM26.8516 1.55441C26.3347 1.55441 25.8916 1.73901 25.5224 2.10821C25.1532 2.47741 24.9686 2.92968 24.9686 3.46503C24.9686 4.00037 25.1532 4.45264 25.5224 4.82185C25.8916 5.19105 26.3347 5.37565 26.8516 5.37565C27.3685 5.37565 27.8115 5.19105 28.1807 4.82185C28.5499 4.45264 28.7345 4.00037 28.7345 3.46503C28.7345 2.92968 28.5499 2.47741 28.1807 2.10821C27.8115 1.73901 27.3685 1.55441 26.8516 1.55441ZM26.8516 2.60663C27.0731 2.60663 27.2762 2.6897 27.4608 2.85584C27.6454 3.02199 27.7377 3.22505 27.7377 3.46503C27.7377 3.70501 27.6454 3.90807 27.4608 4.07421C27.2762 4.24035 27.0731 4.32342 26.8516 4.32342C26.63 4.32342 26.427 4.24035 26.2424 4.07421C26.0578 3.90807 25.9655 3.70501 25.9655 3.46503C25.9655 3.22505 26.0578 3.02199 26.2424 2.85584C26.427 2.6897 26.63 2.60663 26.8516 2.60663ZM26.8516 11.246C26.3347 11.246 25.8916 11.4306 25.5224 11.7998C25.1532 12.169 24.9686 12.6212 24.9686 13.1566C24.9686 13.6919 25.1532 14.1442 25.5224 14.5134C25.8916 14.8826 26.3347 15.0672 26.8516 15.0672C27.3685 15.0672 27.8115 14.8826 28.1807 14.5134C28.5499 14.1442 28.7345 13.6919 28.7345 13.1566C28.7345 12.6212 28.5499 12.169 28.1807 11.7998C27.8115 11.4306 27.3685 11.246 26.8516 11.246ZM26.8516 12.2982C27.0731 12.2982 27.2762 12.3813 27.4608 12.5474C27.6454 12.7135 27.7377 12.9166 27.7377 13.1566C27.7377 13.3966 27.6454 13.5996 27.4608 13.7658C27.2762 13.9319 27.0731 14.015 26.8516 14.015C26.63 14.015 26.427 13.9319 26.2424 13.7658C26.0578 13.5996 25.9655 13.3966 25.9655 13.1566C25.9655 12.9166 26.0578 12.7135 26.2424 12.5474C26.427 12.3813 26.63 12.2982 26.8516 12.2982ZM15.2771 4.82185V11.7444C15.2771 11.8921 15.3232 12.0213 15.4155 12.132C15.5078 12.2428 15.6278 12.2982 15.7755 12.2982C15.9232 12.2982 16.0432 12.2428 16.1355 12.132C16.2278 12.0213 16.2739 11.9105 16.2739 11.7998V4.82185C16.2739 4.71108 16.2278 4.60032 16.1355 4.48956C16.0432 4.3788 15.9232 4.32342 15.7755 4.32342C15.6278 4.32342 15.5078 4.3788 15.4155 4.48956C15.3232 4.60032 15.2771 4.71108 15.2771 4.82185ZM20.8151 4.82185V11.7444C20.8151 11.8921 20.8613 12.0213 20.9536 12.132C21.0459 12.2428 21.1659 12.2982 21.3135 12.2982C21.4612 12.2982 21.5812 12.2428 21.6735 12.132C21.7658 12.0213 21.812 11.9105 21.812 11.7998V4.82185C21.812 4.71108 21.7658 4.60032 21.6735 4.48956C21.5812 4.3788 21.4612 4.32342 21.3135 4.32342C21.1659 4.32342 21.0459 4.3788 20.9536 4.48956C20.8613 4.60032 20.8151 4.71108 20.8151 4.82185ZM26.3531 4.82185V7.59086C26.3531 7.6647 26.3347 7.72008 26.2978 7.757C26.2608 7.79392 26.2239 7.81238 26.187 7.81238H15.7755C15.6278 7.81238 15.5078 7.85853 15.4155 7.95083C15.3232 8.04313 15.2771 8.16312 15.2771 8.3108C15.2771 8.45848 15.3232 8.57847 15.4155 8.67078C15.5078 8.76308 15.6278 8.80923 15.7755 8.80923H26.187C26.5193 8.80923 26.7962 8.69847 27.0177 8.47694C27.2392 8.25542 27.35 7.96006 27.35 7.59086V4.87722C27.35 4.72954 27.3038 4.60032 27.2115 4.48956C27.1192 4.3788 26.9992 4.32342 26.8516 4.32342C26.7039 4.32342 26.5839 4.3788 26.4916 4.48956C26.3993 4.60032 26.3531 4.71108 26.3531 4.82185Z" fill="#050B20"/>
</g>
<path d="M1.13532 38.5906V29.5452H2.40168L5.58051 35.877L8.74642 29.5452H10.0257V38.5906H8.94025V31.4835L5.98109 37.3372H5.167L2.22077 31.5223V38.5906H1.13532ZM14.0172 38.7457C13.4917 38.7457 13.0524 38.6552 12.6992 38.4743C12.3546 38.2848 12.0961 38.035 11.9238 37.7249C11.7515 37.4147 11.6654 37.0788 11.6654 36.7169C11.6654 36.269 11.7774 35.8942 12.0014 35.5927C12.234 35.2826 12.557 35.05 12.9705 34.8949C13.3926 34.7312 13.8837 34.6494 14.4436 34.6494H16.1623C16.1623 34.2359 16.102 33.8913 15.9814 33.6156C15.8608 33.34 15.6798 33.1332 15.4386 32.9954C15.206 32.8575 14.9088 32.7886 14.547 32.7886C14.1421 32.7886 13.7889 32.892 13.4874 33.0988C13.1945 33.2969 13.0136 33.5941 12.9447 33.9904H11.8334C11.8851 33.5338 12.0401 33.1504 12.2986 32.8403C12.5656 32.5216 12.8973 32.2804 13.2936 32.1167C13.6898 31.953 14.1077 31.8712 14.547 31.8712C15.15 31.8712 15.6497 31.9832 16.046 32.2071C16.4509 32.4225 16.7524 32.7283 16.9505 33.1246C17.1487 33.5123 17.2477 33.9688 17.2477 34.4943V38.5906H16.2786L16.214 37.4406C16.1278 37.6215 16.0158 37.7938 15.878 37.9575C15.7488 38.1125 15.5937 38.2504 15.4128 38.371C15.2319 38.483 15.0251 38.5734 14.7925 38.6423C14.5686 38.7112 14.3101 38.7457 14.0172 38.7457ZM14.1852 37.8282C14.4867 37.8282 14.7581 37.7679 14.9993 37.6473C15.2405 37.5181 15.4473 37.3458 15.6195 37.1304C15.8005 36.9065 15.934 36.6609 16.0201 36.3939C16.1149 36.1182 16.1623 35.8382 16.1623 35.554V35.4893H14.5341C14.1206 35.4893 13.7846 35.541 13.5262 35.6444C13.2677 35.7392 13.0825 35.877 12.9705 36.0579C12.8585 36.2302 12.8025 36.4327 12.8025 36.6652C12.8025 36.8978 12.8542 37.1046 12.9576 37.2855C13.0696 37.4578 13.229 37.5913 13.4357 37.6861C13.6425 37.7809 13.8923 37.8282 14.1852 37.8282ZM18.9521 38.5906V32.0262H19.9342L19.9859 33.1375C20.1926 32.7412 20.4855 32.4311 20.8646 32.2071C21.2523 31.9832 21.6916 31.8712 22.1826 31.8712C22.6823 31.8712 23.1173 31.9702 23.4878 32.1684C23.8582 32.3579 24.1468 32.6594 24.3536 33.0729C24.5603 33.4778 24.6637 33.9861 24.6637 34.5977V38.5906H23.5782V34.714C23.5782 34.0765 23.4318 33.5984 23.1389 33.2797C22.8546 32.9609 22.454 32.8015 21.9371 32.8015C21.5753 32.8015 21.2523 32.8877 20.968 33.06C20.6837 33.2323 20.4554 33.4821 20.2831 33.8095C20.1194 34.1368 20.0376 34.5374 20.0376 35.0112V38.5906H18.9521ZM28.7499 38.7457C28.2502 38.7457 27.8152 38.6466 27.4448 38.4485C27.0743 38.2504 26.7857 37.9488 26.579 37.5439C26.3722 37.1391 26.2688 36.6265 26.2688 36.0062V32.0262H27.3543V35.8899C27.3543 36.536 27.4964 37.0185 27.7807 37.3372C28.0736 37.6559 28.4785 37.8153 28.9954 37.8153C29.3572 37.8153 29.6803 37.7292 29.9646 37.5569C30.2488 37.3846 30.4728 37.1348 30.6365 36.8074C30.8088 36.48 30.8949 36.0751 30.8949 35.5927V32.0262H31.9804V38.5906H30.9983L30.9337 37.4664C30.7356 37.8713 30.4427 38.1857 30.055 38.4097C29.676 38.6337 29.2409 38.7457 28.7499 38.7457ZM35.9115 38.7457C35.386 38.7457 34.9467 38.6552 34.5935 38.4743C34.2489 38.2848 33.9905 38.035 33.8182 37.7249C33.6459 37.4147 33.5597 37.0788 33.5597 36.7169C33.5597 36.269 33.6717 35.8942 33.8957 35.5927C34.1283 35.2826 34.4513 35.05 34.8648 34.8949C35.287 34.7312 35.778 34.6494 36.338 34.6494H38.0566C38.0566 34.2359 37.9963 33.8913 37.8757 33.6156C37.7551 33.34 37.5742 33.1332 37.333 32.9954C37.1004 32.8575 36.8032 32.7886 36.4413 32.7886C36.0364 32.7886 35.6832 32.892 35.3817 33.0988C35.0888 33.2969 34.9079 33.5941 34.839 33.9904H33.7277C33.7794 33.5338 33.9345 33.1504 34.1929 32.8403C34.46 32.5216 34.7916 32.2804 35.1879 32.1167C35.5842 31.953 36.002 31.8712 36.4413 31.8712C37.0444 31.8712 37.544 31.9832 37.9403 32.2071C38.3452 32.4225 38.6467 32.7283 38.8448 33.1246C39.043 33.5123 39.1421 33.9688 39.1421 34.4943V38.5906H38.1729L38.1083 37.4406C38.0221 37.6215 37.9101 37.7938 37.7723 37.9575C37.6431 38.1125 37.488 38.2504 37.3071 38.371C37.1262 38.483 36.9195 38.5734 36.6869 38.6423C36.4629 38.7112 36.2044 38.7457 35.9115 38.7457ZM36.0795 37.8282C36.381 37.8282 36.6524 37.7679 36.8936 37.6473C37.1348 37.5181 37.3416 37.3458 37.5139 37.1304C37.6948 36.9065 37.8283 36.6609 37.9145 36.3939C38.0092 36.1182 38.0566 35.8382 38.0566 35.554V35.4893H36.4284C36.0149 35.4893 35.6789 35.541 35.4205 35.6444C35.1621 35.7392 34.9768 35.877 34.8648 36.0579C34.7529 36.2302 34.6969 36.4327 34.6969 36.6652C34.6969 36.8978 34.7485 37.1046 34.8519 37.2855C34.9639 37.4578 35.1233 37.5913 35.33 37.6861C35.5368 37.7809 35.7866 37.8282 36.0795 37.8282ZM40.8465 38.5906V29.2867H41.9319V38.5906H40.8465Z" fill="#050B20"/>
<defs>
<clipPath id="clip0_436_1030">
<rect width="16.6141" height="16.6141" fill="white" transform="matrix(1 0 0 -1 13.0059 16.6141)"/>
</clipPath>
</defs>
</svg>
