<svg width="37" height="49" viewBox="0 0 37 49" fill="none" xmlns="http://www.w3.org/2000/svg">
<path d="M36.376 11.41L24.9756 0H1.8394C0.823897 0 0 0.823897 0 1.8394V34.4791H36.376V11.41Z" fill="#EFF3F5"/>
<path d="M24.9758 9.57061C24.9758 10.5861 25.7997 11.41 26.8152 11.41H36.3858L24.9758 0V9.57061Z" fill="#DBDFE0"/>
<path d="M0.00976562 34.4727V46.8311C0.00976562 47.8466 0.833662 48.6705 1.84916 48.6705H34.5464C35.5619 48.6705 36.3858 47.8466 36.3858 46.8311V34.4727H0.00976562Z" fill="#F1786B"/>
<path d="M8.86239 32.3817C8.278 32.3817 7.71276 32.1614 7.19543 31.7303C6.32364 31.0022 6.25658 30.1974 6.3428 29.6514C6.76433 27.1892 11.3437 24.9379 14.007 23.8266C15.4536 20.2053 16.7086 15.9421 17.4846 12.7423C15.9326 9.41799 15.3865 7.07084 15.8655 5.73919C16.105 5.07816 16.5936 4.64705 17.2834 4.49377L17.3792 4.47461L17.475 4.48419C17.5516 4.49377 18.2318 4.59915 18.7875 5.34641C19.506 6.32359 19.6688 7.90432 19.2665 10.0503C19.1515 10.6634 18.9599 11.5448 18.7108 12.5986C20.1287 15.5493 22.1214 18.8066 23.75 21.0675C25.1104 20.8759 26.4037 20.8088 27.4959 20.9238C29.5364 21.1346 29.9676 22.0255 30.0442 22.5429C30.1592 23.2997 29.6035 24.0853 28.6551 24.4876C27.3426 25.0433 25.1966 24.8996 23.453 22.6387C23.3764 22.5429 23.2997 22.4375 23.2231 22.3321C20.9813 22.7057 18.3755 23.4146 15.7314 24.4014C15.4536 24.5068 15.1853 24.6122 14.9171 24.7176C13.1256 29.1053 11.3724 31.6249 9.69586 32.2284C9.42762 32.3338 9.14021 32.3817 8.86239 32.3817ZM13.3651 25.3786C9.56174 27.0934 7.67444 28.7891 7.502 29.8525C7.46368 30.0825 7.46368 30.4369 7.95227 30.8393C8.40254 31.2129 8.83365 31.3087 9.31266 31.1363C10.6443 30.6573 12.0622 28.358 13.3651 25.3786ZM24.5739 22.1501C25.8672 23.6733 27.3234 23.7979 28.2048 23.4146C28.6646 23.223 28.9233 22.8973 28.8946 22.7153C28.8658 22.5237 28.4347 22.198 27.3809 22.0926C26.5953 22.0159 25.6469 22.0351 24.5739 22.1501ZM18.2893 14.3518C17.7049 16.6031 16.9097 19.3143 15.9805 21.9393C15.8176 22.3896 15.6643 22.8207 15.5015 23.2422C17.5804 22.4758 20.0904 21.7285 22.4758 21.2783C21.1921 19.4484 19.6114 16.9097 18.2893 14.3518ZM17.4271 5.68171C17.2067 5.75835 17.063 5.90206 16.9768 6.15114C16.6415 7.07084 17.0822 8.80486 17.9348 10.855C18.0115 10.491 18.0785 10.1557 18.136 9.8491C18.5767 7.46363 18.1552 6.43855 17.8582 6.04576C17.6953 5.82542 17.5229 5.72003 17.4271 5.68171Z" fill="#F1786B"/>
<path d="M26.8516 40.8341H24.6578V38.6019H26.8516C27.2636 38.6019 27.5989 38.2666 27.5989 37.8547C27.5989 37.4427 27.2636 37.1074 26.8516 37.1074H23.9201C23.5082 37.1074 23.1729 37.4427 23.1729 37.8547V45.2889C23.1729 45.7009 23.5082 46.0362 23.9201 46.0362C24.3321 46.0362 24.6674 45.7009 24.6674 45.2889V42.319H26.8612C27.2732 42.319 27.6085 41.9837 27.6085 41.5718C27.5989 41.1598 27.2636 40.8341 26.8516 40.8341Z" fill="#EFF3F5"/>
<path d="M11.0451 37.1172H9.53144C9.11949 37.1172 8.78418 37.4525 8.78418 37.8644V45.2987C8.78418 45.7106 9.11949 46.0459 9.53144 46.0459C9.94338 46.0459 10.2787 45.7106 10.2787 45.2987V42.3288H11.0451C12.4821 42.3288 13.6509 41.16 13.6509 39.723C13.6509 38.286 12.4821 37.1172 11.0451 37.1172ZM11.0451 40.8343H10.2787V38.6021H11.0451C11.6582 38.6021 12.1564 39.1003 12.1564 39.7134C12.1564 40.3266 11.6582 40.8343 11.0451 40.8343Z" fill="#EFF3F5"/>
<path d="M17.4643 37.1172H15.5099C15.098 37.1172 14.7627 37.4525 14.7627 37.8644V45.2987C14.7627 45.7106 15.098 46.0459 15.5099 46.0459H17.4643C19.9264 46.0459 21.9286 44.0437 21.9286 41.5816C21.9286 39.1099 19.9264 37.1172 17.4643 37.1172ZM17.4643 44.5418H16.2572V38.5925H17.4643C19.1025 38.5925 20.4341 39.9242 20.4341 41.5624C20.4437 43.2102 19.1025 44.5418 17.4643 44.5418Z" fill="#EFF3F5"/>
</svg>
