<svg width="15" height="14" viewBox="0 0 15 14" fill="none" xmlns="http://www.w3.org/2000/svg">
<path d="M1.88293 2.47955e-05C1.36605 2.47955e-05 0.923005 0.184627 0.553803 0.553828C0.184601 0.92303 0 1.3753 0 1.91065C0 2.44599 0.184601 2.89826 0.553803 3.26746C0.923005 3.63666 1.36605 3.82127 1.88293 3.82127C2.39981 3.82127 2.84286 3.63666 3.21206 3.26746C3.58126 2.89826 3.76586 2.44599 3.76586 1.91065C3.76586 1.3753 3.58126 0.92303 3.21206 0.553828C2.84286 0.184627 2.39981 2.47955e-05 1.88293 2.47955e-05ZM1.88293 1.05225C2.10445 1.05225 2.30751 1.13532 2.49211 1.30146C2.67671 1.4676 2.76902 1.67066 2.76902 1.91065C2.76902 2.15063 2.67671 2.35369 2.49211 2.51983C2.30751 2.68597 2.10445 2.76904 1.88293 2.76904C1.66141 2.76904 1.45835 2.68597 1.27375 2.51983C1.08915 2.35369 0.996845 2.15063 0.996845 1.91065C0.996845 1.67066 1.08915 1.4676 1.27375 1.30146C1.45835 1.13532 1.66141 1.05225 1.88293 1.05225ZM1.88293 9.69158C1.36605 9.69158 0.923005 9.87618 0.553803 10.2454C0.184601 10.6146 0 11.0669 0 11.6022C0 12.1375 0.184601 12.5898 0.553803 12.959C0.923005 13.3282 1.36605 13.5128 1.88293 13.5128C2.39981 13.5128 2.84286 13.3282 3.21206 12.959C3.58126 12.5898 3.76586 12.1375 3.76586 11.6022C3.76586 11.0669 3.58126 10.6146 3.21206 10.2454C2.84286 9.87618 2.39981 9.69158 1.88293 9.69158ZM1.88293 10.7438C2.10445 10.7438 2.30751 10.8269 2.49211 10.993C2.67671 11.1592 2.76902 11.3622 2.76902 11.6022C2.76902 11.8422 2.67671 12.0452 2.49211 12.2114C2.30751 12.3775 2.10445 12.4606 1.88293 12.4606C1.66141 12.4606 1.45835 12.3775 1.27375 12.2114C1.08915 12.0452 0.996845 11.8422 0.996845 11.6022C0.996845 11.3622 1.08915 11.1592 1.27375 10.993C1.45835 10.8269 1.66141 10.7438 1.88293 10.7438ZM7.42096 2.47955e-05C6.90408 2.47955e-05 6.46103 0.184627 6.09183 0.553828C5.72263 0.92303 5.53803 1.3753 5.53803 1.91065C5.53803 2.44599 5.72263 2.89826 6.09183 3.26746C6.46103 3.63666 6.90408 3.82127 7.42096 3.82127C7.93784 3.82127 8.38089 3.63666 8.75009 3.26746C9.11929 2.89826 9.30389 2.44599 9.30389 1.91065C9.30389 1.3753 9.11929 0.92303 8.75009 0.553828C8.38089 0.184627 7.93784 2.47955e-05 7.42096 2.47955e-05ZM7.42096 1.05225C7.64248 1.05225 7.84554 1.13532 8.03014 1.30146C8.21474 1.4676 8.30704 1.67066 8.30704 1.91065C8.30704 2.15063 8.21474 2.35369 8.03014 2.51983C7.84554 2.68597 7.64248 2.76904 7.42096 2.76904C7.19944 2.76904 6.99638 2.68597 6.81178 2.51983C6.62718 2.35369 6.53488 2.15063 6.53488 1.91065C6.53488 1.67066 6.62718 1.4676 6.81178 1.30146C6.99638 1.13532 7.19944 1.05225 7.42096 1.05225ZM7.42096 9.69158C6.90408 9.69158 6.46103 9.87618 6.09183 10.2454C5.72263 10.6146 5.53803 11.0669 5.53803 11.6022C5.53803 12.1375 5.72263 12.5898 6.09183 12.959C6.46103 13.3282 6.90408 13.5128 7.42096 13.5128C7.93784 13.5128 8.38089 13.3282 8.75009 12.959C9.11929 12.5898 9.30389 12.1375 9.30389 11.6022C9.30389 11.0669 9.11929 10.6146 8.75009 10.2454C8.38089 9.87618 7.93784 9.69158 7.42096 9.69158ZM7.42096 10.7438C7.64248 10.7438 7.84554 10.8269 8.03014 10.993C8.21474 11.1592 8.30704 11.3622 8.30704 11.6022C8.30704 11.8422 8.21474 12.0452 8.03014 12.2114C7.84554 12.3775 7.64248 12.4606 7.42096 12.4606C7.19944 12.4606 6.99638 12.3775 6.81178 12.2114C6.62718 12.0452 6.53488 11.8422 6.53488 11.6022C6.53488 11.3622 6.62718 11.1592 6.81178 10.993C6.99638 10.8269 7.19944 10.7438 7.42096 10.7438ZM12.959 2.47955e-05C12.4421 2.47955e-05 11.9991 0.184627 11.6299 0.553828C11.2607 0.92303 11.0761 1.3753 11.0761 1.91065C11.0761 2.44599 11.2607 2.89826 11.6299 3.26746C11.9991 3.63666 12.4421 3.82127 12.959 3.82127C13.4759 3.82127 13.9189 3.63666 14.2881 3.26746C14.6573 2.89826 14.8419 2.44599 14.8419 1.91065C14.8419 1.3753 14.6573 0.92303 14.2881 0.553828C13.9189 0.184627 13.4759 2.47955e-05 12.959 2.47955e-05ZM12.959 1.05225C13.1805 1.05225 13.3836 1.13532 13.5682 1.30146C13.7528 1.4676 13.8451 1.67066 13.8451 1.91065C13.8451 2.15063 13.7528 2.35369 13.5682 2.51983C13.3836 2.68597 13.1805 2.76904 12.959 2.76904C12.7375 2.76904 12.5344 2.68597 12.3498 2.51983C12.1652 2.35369 12.0729 2.15063 12.0729 1.91065C12.0729 1.67066 12.1652 1.4676 12.3498 1.30146C12.5344 1.13532 12.7375 1.05225 12.959 1.05225ZM12.959 9.69158C12.4421 9.69158 11.9991 9.87618 11.6299 10.2454C11.2607 10.6146 11.0761 11.0669 11.0761 11.6022C11.0761 12.1375 11.2607 12.5898 11.6299 12.959C11.9991 13.3282 12.4421 13.5128 12.959 13.5128C13.4759 13.5128 13.9189 13.3282 14.2881 12.959C14.6573 12.5898 14.8419 12.1375 14.8419 11.6022C14.8419 11.0669 14.6573 10.6146 14.2881 10.2454C13.9189 9.87618 13.4759 9.69158 12.959 9.69158ZM12.959 10.7438C13.1805 10.7438 13.3836 10.8269 13.5682 10.993C13.7528 11.1592 13.8451 11.3622 13.8451 11.6022C13.8451 11.8422 13.7528 12.0452 13.5682 12.2114C13.3836 12.3775 13.1805 12.4606 12.959 12.4606C12.7375 12.4606 12.5344 12.3775 12.3498 12.2114C12.1652 12.0452 12.0729 11.8422 12.0729 11.6022C12.0729 11.3622 12.1652 11.1592 12.3498 10.993C12.5344 10.8269 12.7375 10.7438 12.959 10.7438ZM1.38451 3.26746V10.19C1.38451 10.3377 1.43066 10.4669 1.52296 10.5777C1.61526 10.6884 1.73525 10.7438 1.88293 10.7438C2.03061 10.7438 2.1506 10.6884 2.2429 10.5777C2.3352 10.4669 2.38135 10.3561 2.38135 10.2454V3.26746C2.38135 3.1567 2.3352 3.04594 2.2429 2.93518C2.1506 2.82442 2.03061 2.76904 1.88293 2.76904C1.73525 2.76904 1.61526 2.82442 1.52296 2.93518C1.43066 3.04594 1.38451 3.1567 1.38451 3.26746ZM6.92254 3.26746V10.19C6.92254 10.3377 6.96869 10.4669 7.06099 10.5777C7.15329 10.6884 7.27328 10.7438 7.42096 10.7438C7.56864 10.7438 7.68863 10.6884 7.78093 10.5777C7.87323 10.4669 7.91938 10.3561 7.91938 10.2454V3.26746C7.91938 3.1567 7.87323 3.04594 7.78093 2.93518C7.68863 2.82442 7.56864 2.76904 7.42096 2.76904C7.27328 2.76904 7.15329 2.82442 7.06099 2.93518C6.96869 3.04594 6.92254 3.1567 6.92254 3.26746ZM12.4606 3.26746V6.03648C12.4606 6.11032 12.4421 6.1657 12.4052 6.20262C12.3683 6.23954 12.3313 6.258 12.2944 6.258H1.88293C1.73525 6.258 1.61526 6.30415 1.52296 6.39645C1.43066 6.48875 1.38451 6.60874 1.38451 6.75642C1.38451 6.9041 1.43066 7.02409 1.52296 7.11639C1.61526 7.20869 1.73525 7.25484 1.88293 7.25484H12.2944C12.6267 7.25484 12.9036 7.14408 13.1251 6.92256C13.3467 6.70104 13.4574 6.40568 13.4574 6.03648V3.32284C13.4574 3.17516 13.4113 3.04594 13.319 2.93518C13.2267 2.82442 13.1067 2.76904 12.959 2.76904C12.8113 2.76904 12.6913 2.82442 12.599 2.93518C12.5067 3.04594 12.4606 3.1567 12.4606 3.26746Z" fill="#050B20"/>
</svg>
