<svg width="22" height="24" viewBox="0 0 22 24" fill="none" xmlns="http://www.w3.org/2000/svg">
<path d="M20.1628 9.58241L3.9755 0.369568C2.25842 -0.610709 0.507812 0.461369 0.507812 2.38919V21.6219C0.507812 23.2552 1.57111 24 2.55937 24C3.02476 24 3.49893 23.8531 3.96991 23.5665L20.2299 13.6137C21.0473 13.1116 21.5063 12.3684 21.492 11.5741C21.4784 10.779 20.9946 10.0526 20.1628 9.58241ZM19.1403 11.8359L2.88107 21.7864C2.77171 21.8534 2.6855 21.8869 2.62642 21.9037C2.61046 21.8446 2.59449 21.7536 2.59449 21.6219V2.38999C2.59449 2.19202 2.63042 2.09223 2.63042 2.06749C2.69428 2.07148 2.80603 2.10421 2.94653 2.18404L19.1315 11.3969C19.3311 11.511 19.3901 11.61 19.4093 11.5885C19.3989 11.6156 19.3311 11.717 19.1403 11.8359Z" fill="#050B20"/>
</svg>
